<svg width="22" height="20" viewBox="0 0 22 20" fill="none" xmlns="http://www.w3.org/2000/svg">
<path d="M8.79088 7.76012C8.79088 8.58334 9.10806 9.33304 9.63049 9.8974C8.08658 10.6793 6.85246 12.2351 6.29335 14.2335C6.16117 14.7038 6.43829 15.1888 6.90541 15.3208L6.90571 15.3209C7.37556 15.4504 7.86068 15.1761 7.99276 14.7088L7.99282 14.7086C8.59521 12.5418 10.1884 11.0979 11.9394 11.0979C13.6903 11.0979 15.2835 12.5418 15.8859 14.7086L15.886 14.7087C15.9953 15.0976 16.3509 15.3515 16.7345 15.3515C16.8119 15.3515 16.8913 15.344 16.974 15.3182C17.4407 15.186 17.7175 14.7012 17.5854 14.2312C17.0263 12.2327 15.7922 10.6792 14.2529 9.8974C14.774 9.33345 15.0903 8.58683 15.0903 7.76012C15.0903 6.02149 13.6756 4.60924 11.9394 4.60924C10.2031 4.60924 8.79088 6.02396 8.79088 7.76012ZM18.0525 0.95H5.81907C4.16915 0.95 2.82395 2.29275 2.82395 3.94512V5.01422H1.83154C1.34382 5.01422 0.95 5.40804 0.95 5.89576C0.95 6.38347 1.34382 6.77729 1.83154 6.77729H2.82395V9.08563H1.83154C1.34373 9.08563 0.95 9.48194 0.95 9.96717C0.95 10.4524 1.34373 10.8487 1.83154 10.8487H2.82395V13.1858H1.83154C1.34373 13.1858 0.95 13.5821 0.95 14.0673C0.95 14.5526 1.34373 14.9489 1.83154 14.9489H2.82395V16.018C2.82395 17.6703 4.16915 19.0131 5.81907 19.0131H18.0525C19.7048 19.0131 21.05 17.6704 21.05 16.018V3.94512C21.05 2.29273 19.7048 0.95 18.0525 0.95ZM19.2869 16.018C19.2869 16.6972 18.7367 17.2476 18.0525 17.2476H5.81907C5.13976 17.2476 4.58942 16.6973 4.58942 16.018V3.94512C4.58942 3.26581 5.13976 2.71547 5.81907 2.71547H18.0525C18.7344 2.71547 19.2869 3.26599 19.2869 3.94512V16.018ZM11.9394 9.14554C11.1739 9.14554 10.554 8.52102 10.554 7.76012C10.554 6.99912 11.174 6.37231 11.9394 6.37231C12.7049 6.37231 13.3272 6.99689 13.3272 7.76012C13.3272 8.5232 12.7027 9.14554 11.9394 9.14554Z" fill="white" stroke="white" stroke-width="0.1"/>
</svg>
