<svg width="18" height="17" viewBox="0 0 18 17" fill="none" xmlns="http://www.w3.org/2000/svg">
<path d="M14.0019 0C13.5166 0 13.066 0.266875 12.832 0.692312L12.0759 2.07506L10.6933 2.83118C9.76891 3.33784 9.76891 4.66449 10.6933 5.16927L12.0759 5.9254L12.832 7.30815C13.3406 8.23062 14.6652 8.23062 15.1699 7.30815L15.9241 5.9254L17.3067 5.16927C18.2311 4.66261 18.2311 3.33596 17.3067 2.83118L15.9241 2.07506L15.1699 0.692312C14.9359 0.264924 14.4873 0 14 0H14.0019Z" fill="white"/>
<path d="M4 8C3.6362 8 3.29866 8.19883 3.12238 8.51956L2.55604 9.55686L1.51898 10.1233C0.827006 10.5022 0.827006 11.4983 1.51898 11.8771L2.55604 12.4436L3.12238 13.4809C3.50306 14.173 4.49697 14.173 4.87762 13.4809L5.44396 12.4436L6.48102 11.8771C7.17299 11.4982 7.17299 10.5022 6.48102 10.1233L5.44396 9.55686L4.87762 8.51956C4.70134 8.19881 4.36754 8 4 8Z" fill="white"/>
<path d="M1.76816 1.43327L1.29733 2.29775L0.431439 2.76986C-0.143813 3.08664 -0.143813 3.91435 0.431439 4.23115L1.29733 4.70325L1.76816 5.56773C2.08341 6.14409 2.91453 6.14409 3.23184 5.56773L3.70267 4.70325L4.56856 4.23115C5.14381 3.91437 5.14381 3.08665 4.56856 2.76986L3.70267 2.29775L3.23184 1.43327C3.0824 1.16554 2.804 1 2.50105 1C2.19808 1 1.91348 1.16555 1.76816 1.43327Z" fill="white"/>
<path d="M13.7682 12.4333L13.2973 13.2978L12.4314 13.7699C11.8562 14.0866 11.8562 14.9144 12.4314 15.2311L13.2973 15.7033L13.7682 16.5677C14.0834 17.1441 14.9145 17.1441 15.2318 16.5677L15.7027 15.7033L16.5686 15.2311C17.1438 14.9144 17.1438 14.0867 16.5686 13.7699L15.7027 13.2978L15.2318 12.4333C15.0824 12.1655 14.804 12 14.501 12C14.1981 12 13.9135 12.1655 13.7682 12.4333Z" fill="white"/>
</svg>
