<svg width="44" height="11" viewBox="0 0 44 11" fill="none" xmlns="http://www.w3.org/2000/svg">
<path d="M7.288 5.87H4.642V8.586H2.794V5.87H0.148V4.162H2.794V1.446H4.642V4.162H7.288V5.87ZM21.4754 10H19.5154L15.0774 3.294V10H13.1174V0.213999H15.0774L19.5154 6.934V0.213999H21.4754V10ZM30.8133 5.954C30.8133 6.234 30.7947 6.486 30.7573 6.71H25.0873C25.134 7.27 25.33 7.70867 25.6753 8.026C26.0207 8.34333 26.4453 8.502 26.9493 8.502C27.6773 8.502 28.1953 8.18933 28.5033 7.564H30.6173C30.3933 8.31067 29.964 8.92667 29.3293 9.412C28.6947 9.888 27.9153 10.126 26.9913 10.126C26.2447 10.126 25.5727 9.96267 24.9753 9.636C24.3873 9.3 23.9253 8.82867 23.5893 8.222C23.2627 7.61533 23.0993 6.91533 23.0993 6.122C23.0993 5.31933 23.2627 4.61467 23.5893 4.008C23.916 3.40133 24.3733 2.93467 24.9613 2.608C25.5493 2.28133 26.226 2.118 26.9913 2.118C27.7287 2.118 28.3867 2.27667 28.9653 2.594C29.5533 2.91133 30.006 3.364 30.3233 3.952C30.65 4.53067 30.8133 5.198 30.8133 5.954ZM28.7833 5.394C28.774 4.89 28.592 4.48867 28.2373 4.19C27.8827 3.882 27.4487 3.728 26.9353 3.728C26.45 3.728 26.0393 3.87733 25.7033 4.176C25.3767 4.46533 25.176 4.87133 25.1013 5.394H28.7833ZM43.1869 2.244L40.9189 10H38.8049L37.3909 4.582L35.9769 10H33.8489L31.5669 2.244H33.5549L34.9269 8.152L36.4109 2.244H38.4829L39.9389 8.138L41.3109 2.244H43.1869Z" fill="#3D3D3D"/>
</svg>
