<svg width="178" height="15" viewBox="0 0 178 15" fill="none" xmlns="http://www.w3.org/2000/svg">
<path d="M7.288 6.87H4.642V9.586H2.794V6.87H0.148V5.162H2.794V2.446H4.642V5.162H7.288V6.87ZM21.4754 11H19.5154L15.0774 4.294V11H13.1174V1.214H15.0774L19.5154 7.934V1.214H21.4754V11ZM30.8133 6.954C30.8133 7.234 30.7947 7.486 30.7573 7.71H25.0873C25.134 8.27 25.33 8.70867 25.6753 9.026C26.0207 9.34333 26.4453 9.502 26.9493 9.502C27.6773 9.502 28.1953 9.18933 28.5033 8.564H30.6173C30.3933 9.31067 29.964 9.92667 29.3293 10.412C28.6947 10.888 27.9153 11.126 26.9913 11.126C26.2447 11.126 25.5727 10.9627 24.9753 10.636C24.3873 10.3 23.9253 9.82867 23.5893 9.222C23.2627 8.61533 23.0993 7.91533 23.0993 7.122C23.0993 6.31933 23.2627 5.61467 23.5893 5.008C23.916 4.40133 24.3733 3.93467 24.9613 3.608C25.5493 3.28133 26.226 3.118 26.9913 3.118C27.7287 3.118 28.3867 3.27667 28.9653 3.594C29.5533 3.91133 30.006 4.364 30.3233 4.952C30.65 5.53067 30.8133 6.198 30.8133 6.954ZM28.7833 6.394C28.774 5.89 28.592 5.48867 28.2373 5.19C27.8827 4.882 27.4487 4.728 26.9353 4.728C26.45 4.728 26.0393 4.87733 25.7033 5.176C25.3767 5.46533 25.176 5.87133 25.1013 6.394H28.7833ZM43.1869 3.244L40.9189 11H38.8049L37.3909 5.582L35.9769 11H33.8489L31.5669 3.244H33.5549L34.9269 9.152L36.4109 3.244H38.4829L39.9389 9.138L41.3109 3.244H43.1869ZM47.4893 6.1C47.4893 5.13867 47.7039 4.28 48.1333 3.524C48.5719 2.75867 49.1646 2.166 49.9113 1.746C50.6673 1.31667 51.5119 1.102 52.4453 1.102C53.5373 1.102 54.4939 1.382 55.3153 1.942C56.1366 2.502 56.7106 3.27667 57.0373 4.266H54.7833C54.5593 3.79933 54.2419 3.44933 53.8313 3.216C53.4299 2.98267 52.9633 2.866 52.4313 2.866C51.8619 2.866 51.3533 3.00133 50.9053 3.272C50.4666 3.53333 50.1213 3.90667 49.8693 4.392C49.6266 4.87733 49.5053 5.44667 49.5053 6.1C49.5053 6.744 49.6266 7.31333 49.8693 7.808C50.1213 8.29333 50.4666 8.67133 50.9053 8.942C51.3533 9.20333 51.8619 9.334 52.4313 9.334C52.9633 9.334 53.4299 9.21733 53.8313 8.984C54.2419 8.74133 54.5593 8.38667 54.7833 7.92H57.0373C56.7106 8.91867 56.1366 9.698 55.3153 10.258C54.5033 10.8087 53.5466 11.084 52.4453 11.084C51.5119 11.084 50.6673 10.874 49.9113 10.454C49.1646 10.0247 48.5719 9.432 48.1333 8.676C47.7039 7.92 47.4893 7.06133 47.4893 6.1ZM66.2243 3.244V11H64.2503V10.02C63.9983 10.356 63.667 10.622 63.2563 10.818C62.855 11.0047 62.4163 11.098 61.9403 11.098C61.3337 11.098 60.797 10.972 60.3303 10.72C59.8637 10.4587 59.495 10.0807 59.2243 9.586C58.963 9.082 58.8323 8.48467 58.8323 7.794V3.244H60.7923V7.514C60.7923 8.13 60.9463 8.606 61.2543 8.942C61.5623 9.26867 61.9823 9.432 62.5143 9.432C63.0557 9.432 63.4803 9.26867 63.7883 8.942C64.0963 8.606 64.2503 8.13 64.2503 7.514V3.244H66.2243ZM71.3171 11.126C70.6825 11.126 70.1131 11.014 69.6091 10.79C69.1051 10.5567 68.7038 10.244 68.4051 9.852C68.1158 9.46 67.9571 9.026 67.9291 8.55H69.9031C69.9405 8.84867 70.0851 9.096 70.3371 9.292C70.5985 9.488 70.9205 9.586 71.3031 9.586C71.6765 9.586 71.9658 9.51133 72.1711 9.362C72.3858 9.21267 72.4931 9.02133 72.4931 8.788C72.4931 8.536 72.3625 8.34933 72.1011 8.228C71.8491 8.09733 71.4431 7.95733 70.8831 7.808C70.3045 7.668 69.8285 7.52333 69.4551 7.374C69.0911 7.22467 68.7738 6.996 68.5031 6.688C68.2418 6.38 68.1111 5.96467 68.1111 5.442C68.1111 5.01267 68.2325 4.62067 68.4751 4.266C68.7271 3.91133 69.0818 3.63133 69.5391 3.426C70.0058 3.22067 70.5518 3.118 71.1771 3.118C72.1011 3.118 72.8385 3.35133 73.3891 3.818C73.9398 4.27533 74.2431 4.896 74.2991 5.68H72.4231C72.3951 5.372 72.2645 5.12933 72.0311 4.952C71.8071 4.76533 71.5038 4.672 71.1211 4.672C70.7665 4.672 70.4911 4.73733 70.2951 4.868C70.1085 4.99867 70.0151 5.18067 70.0151 5.414C70.0151 5.67533 70.1458 5.876 70.4071 6.016C70.6685 6.14667 71.0745 6.282 71.6251 6.422C72.1851 6.562 72.6471 6.70667 73.0111 6.856C73.3751 7.00533 73.6878 7.23867 73.9491 7.556C74.2198 7.864 74.3598 8.27467 74.3691 8.788C74.3691 9.236 74.2431 9.63733 73.9911 9.992C73.7485 10.3467 73.3938 10.6267 72.9271 10.832C72.4698 11.028 71.9331 11.126 71.3171 11.126ZM78.451 4.854V8.606C78.451 8.86733 78.5117 9.05867 78.633 9.18C78.7637 9.292 78.9783 9.348 79.277 9.348H80.187V11H78.955C77.303 11 76.477 10.1973 76.477 8.592V4.854H75.553V3.244H76.477V1.326H78.451V3.244H80.187V4.854H78.451ZM85.2317 11.126C84.485 11.126 83.813 10.9627 83.2157 10.636C82.6184 10.3 82.147 9.82867 81.8017 9.222C81.4657 8.61533 81.2977 7.91533 81.2977 7.122C81.2977 6.32867 81.4704 5.62867 81.8157 5.022C82.1704 4.41533 82.651 3.94867 83.2577 3.622C83.8644 3.286 84.541 3.118 85.2877 3.118C86.0344 3.118 86.711 3.286 87.3177 3.622C87.9244 3.94867 88.4004 4.41533 88.7457 5.022C89.1004 5.62867 89.2777 6.32867 89.2777 7.122C89.2777 7.91533 89.0957 8.61533 88.7317 9.222C88.377 9.82867 87.8917 10.3 87.2757 10.636C86.669 10.9627 85.9877 11.126 85.2317 11.126ZM85.2317 9.418C85.5864 9.418 85.9177 9.334 86.2257 9.166C86.543 8.98867 86.795 8.72733 86.9817 8.382C87.1684 8.03667 87.2617 7.61667 87.2617 7.122C87.2617 6.38467 87.0657 5.82 86.6737 5.428C86.291 5.02667 85.8197 4.826 85.2597 4.826C84.6997 4.826 84.2284 5.02667 83.8457 5.428C83.4724 5.82 83.2857 6.38467 83.2857 7.122C83.2857 7.85933 83.4677 8.42867 83.8317 8.83C84.205 9.222 84.6717 9.418 85.2317 9.418ZM100.538 3.132C101.49 3.132 102.256 3.426 102.834 4.014C103.422 4.59267 103.716 5.40467 103.716 6.45V11H101.756V6.716C101.756 6.10933 101.602 5.64733 101.294 5.33C100.986 5.00333 100.566 4.84 100.034 4.84C99.5024 4.84 99.0777 5.00333 98.7604 5.33C98.4524 5.64733 98.2984 6.10933 98.2984 6.716V11H96.3384V6.716C96.3384 6.10933 96.1844 5.64733 95.8764 5.33C95.5684 5.00333 95.1484 4.84 94.6164 4.84C94.0751 4.84 93.6457 5.00333 93.3284 5.33C93.0204 5.64733 92.8664 6.10933 92.8664 6.716V11H90.9064V3.244H92.8664V4.182C93.1184 3.85533 93.4404 3.59867 93.8324 3.412C94.2337 3.22533 94.6724 3.132 95.1484 3.132C95.7551 3.132 96.2964 3.26267 96.7724 3.524C97.2484 3.776 97.6171 4.14 97.8784 4.616C98.1304 4.168 98.4944 3.80867 98.9704 3.538C99.4557 3.26733 99.9784 3.132 100.538 3.132ZM115.944 1.228V2.81H113.34V11H111.38V2.81H108.776V1.228H115.944ZM124.775 6.954C124.775 7.234 124.757 7.486 124.719 7.71H119.049C119.096 8.27 119.292 8.70867 119.637 9.026C119.983 9.34333 120.407 9.502 120.911 9.502C121.639 9.502 122.157 9.18933 122.465 8.564H124.579C124.355 9.31067 123.926 9.92667 123.291 10.412C122.657 10.888 121.877 11.126 120.953 11.126C120.207 11.126 119.535 10.9627 118.937 10.636C118.349 10.3 117.887 9.82867 117.551 9.222C117.225 8.61533 117.061 7.91533 117.061 7.122C117.061 6.31933 117.225 5.61467 117.551 5.008C117.878 4.40133 118.335 3.93467 118.923 3.608C119.511 3.28133 120.188 3.118 120.953 3.118C121.691 3.118 122.349 3.27667 122.927 3.594C123.515 3.91133 123.968 4.364 124.285 4.952C124.612 5.53067 124.775 6.198 124.775 6.954ZM122.745 6.394C122.736 5.89 122.554 5.48867 122.199 5.19C121.845 4.882 121.411 4.728 120.897 4.728C120.412 4.728 120.001 4.87733 119.665 5.176C119.339 5.46533 119.138 5.87133 119.063 6.394H122.745ZM136.029 3.132C136.981 3.132 137.746 3.426 138.325 4.014C138.913 4.59267 139.207 5.40467 139.207 6.45V11H137.247V6.716C137.247 6.10933 137.093 5.64733 136.785 5.33C136.477 5.00333 136.057 4.84 135.525 4.84C134.993 4.84 134.568 5.00333 134.251 5.33C133.943 5.64733 133.789 6.10933 133.789 6.716V11H131.829V6.716C131.829 6.10933 131.675 5.64733 131.367 5.33C131.059 5.00333 130.639 4.84 130.107 4.84C129.565 4.84 129.136 5.00333 128.819 5.33C128.511 5.64733 128.357 6.10933 128.357 6.716V11H126.397V3.244H128.357V4.182C128.609 3.85533 128.931 3.59867 129.323 3.412C129.724 3.22533 130.163 3.132 130.639 3.132C131.245 3.132 131.787 3.26267 132.263 3.524C132.739 3.776 133.107 4.14 133.369 4.616C133.621 4.168 133.985 3.80867 134.461 3.538C134.946 3.26733 135.469 3.132 136.029 3.132ZM143.218 4.364C143.47 4.00933 143.815 3.71533 144.254 3.482C144.702 3.23933 145.21 3.118 145.78 3.118C146.442 3.118 147.04 3.28133 147.572 3.608C148.113 3.93467 148.538 4.40133 148.846 5.008C149.163 5.60533 149.322 6.30067 149.322 7.094C149.322 7.88733 149.163 8.592 148.846 9.208C148.538 9.81467 148.113 10.286 147.572 10.622C147.04 10.958 146.442 11.126 145.78 11.126C145.21 11.126 144.706 11.0093 144.268 10.776C143.838 10.5427 143.488 10.2487 143.218 9.894V14.696H141.258V3.244H143.218V4.364ZM147.32 7.094C147.32 6.62733 147.222 6.226 147.026 5.89C146.839 5.54467 146.587 5.28333 146.27 5.106C145.962 4.92867 145.626 4.84 145.262 4.84C144.907 4.84 144.571 4.93333 144.254 5.12C143.946 5.29733 143.694 5.55867 143.498 5.904C143.311 6.24933 143.218 6.65533 143.218 7.122C143.218 7.58867 143.311 7.99467 143.498 8.34C143.694 8.68533 143.946 8.95133 144.254 9.138C144.571 9.31533 144.907 9.404 145.262 9.404C145.626 9.404 145.962 9.31067 146.27 9.124C146.587 8.93733 146.839 8.67133 147.026 8.326C147.222 7.98067 147.32 7.57 147.32 7.094ZM152.897 0.64V11H150.937V0.64H152.897ZM154.52 7.094C154.52 6.31 154.674 5.61467 154.982 5.008C155.3 4.40133 155.724 3.93467 156.256 3.608C156.798 3.28133 157.4 3.118 158.062 3.118C158.641 3.118 159.145 3.23467 159.574 3.468C160.013 3.70133 160.363 3.99533 160.624 4.35V3.244H162.598V11H160.624V9.866C160.372 10.23 160.022 10.5333 159.574 10.776C159.136 11.0093 158.627 11.126 158.048 11.126C157.395 11.126 156.798 10.958 156.256 10.622C155.724 10.286 155.3 9.81467 154.982 9.208C154.674 8.592 154.52 7.88733 154.52 7.094ZM160.624 7.122C160.624 6.646 160.531 6.24 160.344 5.904C160.158 5.55867 159.906 5.29733 159.588 5.12C159.271 4.93333 158.93 4.84 158.566 4.84C158.202 4.84 157.866 4.92867 157.558 5.106C157.25 5.28333 156.998 5.54467 156.802 5.89C156.616 6.226 156.522 6.62733 156.522 7.094C156.522 7.56067 156.616 7.97133 156.802 8.326C156.998 8.67133 157.25 8.93733 157.558 9.124C157.876 9.31067 158.212 9.404 158.566 9.404C158.93 9.404 159.271 9.31533 159.588 9.138C159.906 8.95133 160.158 8.69 160.344 8.354C160.531 8.00867 160.624 7.598 160.624 7.122ZM166.986 4.854V8.606C166.986 8.86733 167.046 9.05867 167.168 9.18C167.298 9.292 167.513 9.348 167.812 9.348H168.722V11H167.49C165.838 11 165.012 10.1973 165.012 8.592V4.854H164.088V3.244H165.012V1.326H166.986V3.244H168.722V4.854H166.986ZM177.532 6.954C177.532 7.234 177.514 7.486 177.476 7.71H171.806C171.853 8.27 172.049 8.70867 172.394 9.026C172.74 9.34333 173.164 9.502 173.668 9.502C174.396 9.502 174.914 9.18933 175.222 8.564H177.336C177.112 9.31067 176.683 9.92667 176.048 10.412C175.414 10.888 174.634 11.126 173.71 11.126C172.964 11.126 172.292 10.9627 171.694 10.636C171.106 10.3 170.644 9.82867 170.308 9.222C169.982 8.61533 169.818 7.91533 169.818 7.122C169.818 6.31933 169.982 5.61467 170.308 5.008C170.635 4.40133 171.092 3.93467 171.68 3.608C172.268 3.28133 172.945 3.118 173.71 3.118C174.448 3.118 175.106 3.27667 175.684 3.594C176.272 3.91133 176.725 4.364 177.042 4.952C177.369 5.53067 177.532 6.198 177.532 6.954ZM175.502 6.394C175.493 5.89 175.311 5.48867 174.956 5.19C174.602 4.882 174.168 4.728 173.654 4.728C173.169 4.728 172.758 4.87733 172.422 5.176C172.096 5.46533 171.895 5.87133 171.82 6.394H175.502Z" fill="#3D3D3D"/>
</svg>
