<svg width="22" height="22" viewBox="0 0 22 22" fill="none" xmlns="http://www.w3.org/2000/svg">
<mask id="path-1-outside-1_36280_10159" maskUnits="userSpaceOnUse" x="0" y="0" width="22" height="22" fill="black">
<rect fill="white" width="22" height="22"/>
<path d="M7.60632 1.25439H3.46027C2.80805 1.2553 2.1828 1.5148 1.7216 1.976C1.26041 2.43719 1.00091 3.06244 1 3.71466V7.8612C1.00078 8.51347 1.26024 9.13879 1.72146 9.60001C2.18268 10.0612 2.80801 10.3207 3.46027 10.3215H7.60632C8.25858 10.3207 8.88391 10.0612 9.34513 9.60001C9.80635 9.13879 10.0658 8.51347 10.0666 7.8612V3.71466C10.0658 3.0624 9.80635 2.43707 9.34513 1.97585C8.88391 1.51463 8.25858 1.25517 7.60632 1.25439ZM9.08248 7.86022C9.08248 8.25172 8.92696 8.62719 8.65012 8.90402C8.37329 9.18086 7.99782 9.33638 7.60632 9.33638H3.46027C3.06877 9.33638 2.6933 9.18086 2.41647 8.90402C2.13963 8.62719 1.98411 8.25172 1.98411 7.86022V3.71466C1.98411 3.32316 2.13963 2.94769 2.41647 2.67086C2.6933 2.39403 3.06877 2.2385 3.46027 2.2385H7.60632C7.99782 2.2385 8.37329 2.39403 8.65012 2.67086C8.92696 2.94769 9.08248 3.32316 9.08248 3.71466V7.86022ZM7.60632 12.1298H3.46027C2.80801 12.1306 2.18268 12.39 1.72146 12.8512C1.26024 13.3125 1.00078 13.9378 1 14.59V18.7356C1.00078 19.3879 1.26024 20.0132 1.72146 20.4744C2.18268 20.9356 2.80801 21.1951 3.46027 21.1959H7.60632C8.25858 21.1951 8.88391 20.9356 9.34513 20.4744C9.80635 20.0132 10.0658 19.3879 10.0666 18.7356V14.59C10.0658 13.9378 9.80635 13.3125 9.34513 12.8512C8.88391 12.39 8.25858 12.1306 7.60632 12.1298ZM9.08248 18.7356C9.08248 19.1271 8.92696 19.5026 8.65012 19.7794C8.37329 20.0562 7.99782 20.2118 7.60632 20.2118H3.46027C3.06877 20.2118 2.6933 20.0562 2.41647 19.7794C2.13963 19.5026 1.98411 19.1271 1.98411 18.7356V14.59C1.98411 14.1985 2.13963 13.8231 2.41647 13.5462C2.6933 13.2694 3.06877 13.1139 3.46027 13.1139H7.60632C7.99782 13.1139 8.37329 13.2694 8.65012 13.5462C8.92696 13.8231 9.08248 14.1985 9.08248 14.59V18.7356ZM18.4807 12.1298H14.3356C13.6834 12.1306 13.0581 12.39 12.5968 12.8512C12.1356 13.3125 11.8762 13.9378 11.8754 14.59V18.7356C11.8762 19.3879 12.1356 20.0132 12.5968 20.4744C13.0581 20.9356 13.6834 21.1951 14.3356 21.1959H18.4812C19.1335 21.1951 19.7588 20.9356 20.22 20.4744C20.6812 20.0132 20.9407 19.3879 20.9415 18.7356V14.59C20.9407 13.9378 20.6812 13.3125 20.22 12.8512C19.7588 12.39 19.133 12.1306 18.4807 12.1298ZM19.9569 18.7356C19.9569 19.1271 19.8014 19.5026 19.5245 19.7794C19.2477 20.0562 18.8722 20.2118 18.4807 20.2118H14.3356C13.9441 20.2118 13.5687 20.0562 13.2918 19.7794C13.015 19.5026 12.8595 19.1271 12.8595 18.7356V14.59C12.8595 14.1985 13.015 13.8231 13.2918 13.5462C13.5687 13.2694 13.9441 13.1139 14.3356 13.1139H18.4812C18.8727 13.1139 19.2482 13.2694 19.525 13.5462C19.8018 13.8231 19.9574 14.1985 19.9574 14.59L19.9569 18.7356ZM20.9735 7.05325C20.8436 6.66829 20.6255 6.31899 20.3367 6.03322L20.3215 5.36058C20.5973 5.06201 20.7995 4.70311 20.912 4.31251C20.9315 4.24707 20.9373 4.17828 20.9288 4.11051C20.9203 4.04274 20.8978 3.97747 20.8627 3.91887L20.1148 2.69464C20.0791 2.63602 20.0316 2.58552 19.9753 2.54637C19.9189 2.50722 19.855 2.48029 19.7876 2.46731C19.3895 2.38895 18.9788 2.40309 18.587 2.50864L17.9965 2.18585C17.8754 1.79827 17.6653 1.4444 17.3829 1.15254C17.3348 1.1041 17.2775 1.06568 17.2144 1.0395C17.1513 1.01332 17.0837 0.999892 17.0154 1L15.5815 1.03297C15.5132 1.03462 15.446 1.05048 15.3842 1.07953C15.3223 1.10859 15.2672 1.15021 15.2223 1.20174C14.9535 1.50698 14.7595 1.87074 14.656 2.26409L14.0817 2.61345C13.6852 2.52459 13.2735 2.52948 12.8792 2.62772C12.8127 2.64385 12.7503 2.67367 12.696 2.71527C12.6417 2.75687 12.5967 2.80933 12.5638 2.86931L11.8749 4.1275C11.8419 4.18769 11.8219 4.25412 11.8162 4.3225C11.8104 4.39089 11.819 4.45972 11.8414 4.52458C11.9713 4.90955 12.1893 5.25884 12.4781 5.54461L12.4934 6.21725C12.2176 6.51582 12.0154 6.87473 11.9029 7.26533C11.8834 7.33076 11.8776 7.39955 11.8861 7.46733C11.8946 7.5351 11.9171 7.60036 11.9521 7.65897L12.6981 8.88418C12.7337 8.94269 12.781 8.99312 12.8372 9.03227C12.8934 9.07141 12.9571 9.0984 13.0243 9.11151C13.4228 9.19148 13.8344 9.17733 14.2264 9.07018L14.8169 9.39346C14.9384 9.78088 15.1485 10.1347 15.4305 10.4268C15.4764 10.475 15.5317 10.5134 15.5929 10.5396C15.6542 10.5658 15.7201 10.5793 15.7867 10.5793H15.798L17.2324 10.5459C17.3006 10.5443 17.3678 10.5285 17.4297 10.4995C17.4915 10.4705 17.5467 10.429 17.5916 10.3776C17.8607 10.0724 18.0545 9.70837 18.1574 9.31473L18.7312 8.96537C19.1281 9.05499 19.5405 9.05011 19.9352 8.9511C20.0015 8.93485 20.0637 8.90497 20.1179 8.86338C20.172 8.82178 20.2169 8.76938 20.2496 8.7095L20.9385 7.45083C20.9718 7.39068 20.9921 7.32422 20.9981 7.25574C21.0041 7.18726 20.9957 7.11828 20.9735 7.05325ZM19.5007 8.03047C19.3453 8.05527 19.1868 8.05527 19.0313 8.03047C18.9528 7.9625 18.8547 7.92113 18.7512 7.91229C18.6477 7.90345 18.5441 7.92759 18.4551 7.98126L17.4144 8.61454C17.3256 8.66851 17.2561 8.74925 17.2159 8.84516C17.1758 8.94108 17.1671 9.04724 17.191 9.14842C17.1418 9.29804 17.0695 9.43901 16.9765 9.56617L16.0111 9.58831C15.9127 9.46563 15.834 9.32833 15.7779 9.18138C15.7973 9.07939 15.7839 8.97387 15.7397 8.87992C15.6956 8.78597 15.6228 8.70841 15.5318 8.65833L14.4626 8.07377C14.3715 8.02397 14.267 8.00424 14.1641 8.01741C14.0611 8.03057 13.965 8.07596 13.8894 8.14709C13.7352 8.17889 13.577 8.18669 13.4204 8.17021L12.9185 7.34553C12.9754 7.19845 13.0551 7.06128 13.1547 6.93909C13.2526 6.90466 13.3372 6.84014 13.3962 6.75477C13.4552 6.6694 13.4858 6.56754 13.4834 6.46377L13.4554 5.24643C13.4531 5.14249 13.418 5.04194 13.3551 4.9592C13.2921 4.87646 13.2046 4.81578 13.105 4.78587C12.9998 4.66891 12.9138 4.53605 12.8501 4.39222L13.3137 3.54589C13.469 3.52162 13.6272 3.52162 13.7826 3.54589C13.8612 3.61397 13.9593 3.65541 14.0629 3.66425C14.1665 3.67309 14.2703 3.64888 14.3593 3.59509L15.4 2.96182C15.4888 2.90785 15.5583 2.82711 15.5984 2.7312C15.6386 2.63528 15.6473 2.52912 15.6234 2.42794C15.6722 2.27831 15.7446 2.13744 15.8379 2.01068L16.8033 1.98854C16.9018 2.111 16.9805 2.24814 17.0365 2.39497C17.0172 2.49689 17.0306 2.6023 17.0748 2.69615C17.119 2.79 17.1917 2.86748 17.2826 2.91754L18.3518 3.50259C18.4429 3.55233 18.5474 3.57198 18.6504 3.55872C18.7534 3.54546 18.8495 3.49998 18.925 3.42878C19.0792 3.39662 19.2375 3.38915 19.394 3.40664L19.8959 4.23083C19.839 4.37777 19.7594 4.5149 19.6602 4.63727C19.5622 4.67159 19.4777 4.736 19.4185 4.82128C19.3594 4.90656 19.3288 5.00835 19.331 5.1121L19.359 6.33042C19.3613 6.43442 19.3965 6.53502 19.4595 6.61776C19.5226 6.70051 19.6102 6.76116 19.7099 6.79099C19.8146 6.90812 19.9002 7.04095 19.9638 7.18463L19.5007 8.03047ZM17.2555 4.23526C16.9483 4.06884 16.5987 3.99699 16.2508 4.02874C15.9029 4.06048 15.5721 4.19441 15.3001 4.41367C15.0281 4.63293 14.827 4.92773 14.7221 5.261C14.6172 5.59426 14.6132 5.9511 14.7106 6.28663C14.8097 6.62183 15.0058 6.9202 15.2742 7.14419C15.5425 7.36818 15.8711 7.50776 16.2186 7.54538C16.5662 7.58299 16.917 7.51695 17.2271 7.35556C17.5372 7.19418 17.7926 6.94467 17.9611 6.63845C18.1863 6.22642 18.2387 5.74184 18.1067 5.29121C17.9748 4.84058 17.6693 4.46077 17.2575 4.23526H17.2555ZM17.0956 6.16411C17.021 6.29989 16.9079 6.41053 16.7705 6.48208C16.6331 6.55362 16.4776 6.58285 16.3236 6.56608C16.1696 6.54931 16.0241 6.48728 15.9053 6.38784C15.7865 6.2884 15.6999 6.156 15.6563 6.00736C15.6127 5.85871 15.6142 5.70049 15.6605 5.55266C15.7067 5.40484 15.7958 5.27403 15.9163 5.17677C16.0369 5.07951 16.1836 5.02016 16.3378 5.00619C16.4921 4.99223 16.6471 5.02429 16.7831 5.09832C16.8738 5.14756 16.9539 5.21422 17.0189 5.29447C17.0838 5.37472 17.1322 5.46699 17.1614 5.56599C17.1906 5.66499 17.2 5.76878 17.1891 5.87141C17.1781 5.97405 17.147 6.07351 17.0976 6.16411H17.0956Z"/>
</mask>
<path d="M7.60632 1.25439H3.46027C2.80805 1.2553 2.1828 1.5148 1.7216 1.976C1.26041 2.43719 1.00091 3.06244 1 3.71466V7.8612C1.00078 8.51347 1.26024 9.13879 1.72146 9.60001C2.18268 10.0612 2.80801 10.3207 3.46027 10.3215H7.60632C8.25858 10.3207 8.88391 10.0612 9.34513 9.60001C9.80635 9.13879 10.0658 8.51347 10.0666 7.8612V3.71466C10.0658 3.0624 9.80635 2.43707 9.34513 1.97585C8.88391 1.51463 8.25858 1.25517 7.60632 1.25439ZM9.08248 7.86022C9.08248 8.25172 8.92696 8.62719 8.65012 8.90402C8.37329 9.18086 7.99782 9.33638 7.60632 9.33638H3.46027C3.06877 9.33638 2.6933 9.18086 2.41647 8.90402C2.13963 8.62719 1.98411 8.25172 1.98411 7.86022V3.71466C1.98411 3.32316 2.13963 2.94769 2.41647 2.67086C2.6933 2.39403 3.06877 2.2385 3.46027 2.2385H7.60632C7.99782 2.2385 8.37329 2.39403 8.65012 2.67086C8.92696 2.94769 9.08248 3.32316 9.08248 3.71466V7.86022ZM7.60632 12.1298H3.46027C2.80801 12.1306 2.18268 12.39 1.72146 12.8512C1.26024 13.3125 1.00078 13.9378 1 14.59V18.7356C1.00078 19.3879 1.26024 20.0132 1.72146 20.4744C2.18268 20.9356 2.80801 21.1951 3.46027 21.1959H7.60632C8.25858 21.1951 8.88391 20.9356 9.34513 20.4744C9.80635 20.0132 10.0658 19.3879 10.0666 18.7356V14.59C10.0658 13.9378 9.80635 13.3125 9.34513 12.8512C8.88391 12.39 8.25858 12.1306 7.60632 12.1298ZM9.08248 18.7356C9.08248 19.1271 8.92696 19.5026 8.65012 19.7794C8.37329 20.0562 7.99782 20.2118 7.60632 20.2118H3.46027C3.06877 20.2118 2.6933 20.0562 2.41647 19.7794C2.13963 19.5026 1.98411 19.1271 1.98411 18.7356V14.59C1.98411 14.1985 2.13963 13.8231 2.41647 13.5462C2.6933 13.2694 3.06877 13.1139 3.46027 13.1139H7.60632C7.99782 13.1139 8.37329 13.2694 8.65012 13.5462C8.92696 13.8231 9.08248 14.1985 9.08248 14.59V18.7356ZM18.4807 12.1298H14.3356C13.6834 12.1306 13.0581 12.39 12.5968 12.8512C12.1356 13.3125 11.8762 13.9378 11.8754 14.59V18.7356C11.8762 19.3879 12.1356 20.0132 12.5968 20.4744C13.0581 20.9356 13.6834 21.1951 14.3356 21.1959H18.4812C19.1335 21.1951 19.7588 20.9356 20.22 20.4744C20.6812 20.0132 20.9407 19.3879 20.9415 18.7356V14.59C20.9407 13.9378 20.6812 13.3125 20.22 12.8512C19.7588 12.39 19.133 12.1306 18.4807 12.1298ZM19.9569 18.7356C19.9569 19.1271 19.8014 19.5026 19.5245 19.7794C19.2477 20.0562 18.8722 20.2118 18.4807 20.2118H14.3356C13.9441 20.2118 13.5687 20.0562 13.2918 19.7794C13.015 19.5026 12.8595 19.1271 12.8595 18.7356V14.59C12.8595 14.1985 13.015 13.8231 13.2918 13.5462C13.5687 13.2694 13.9441 13.1139 14.3356 13.1139H18.4812C18.8727 13.1139 19.2482 13.2694 19.525 13.5462C19.8018 13.8231 19.9574 14.1985 19.9574 14.59L19.9569 18.7356ZM20.9735 7.05325C20.8436 6.66829 20.6255 6.31899 20.3367 6.03322L20.3215 5.36058C20.5973 5.06201 20.7995 4.70311 20.912 4.31251C20.9315 4.24707 20.9373 4.17828 20.9288 4.11051C20.9203 4.04274 20.8978 3.97747 20.8627 3.91887L20.1148 2.69464C20.0791 2.63602 20.0316 2.58552 19.9753 2.54637C19.9189 2.50722 19.855 2.48029 19.7876 2.46731C19.3895 2.38895 18.9788 2.40309 18.587 2.50864L17.9965 2.18585C17.8754 1.79827 17.6653 1.4444 17.3829 1.15254C17.3348 1.1041 17.2775 1.06568 17.2144 1.0395C17.1513 1.01332 17.0837 0.999892 17.0154 1L15.5815 1.03297C15.5132 1.03462 15.446 1.05048 15.3842 1.07953C15.3223 1.10859 15.2672 1.15021 15.2223 1.20174C14.9535 1.50698 14.7595 1.87074 14.656 2.26409L14.0817 2.61345C13.6852 2.52459 13.2735 2.52948 12.8792 2.62772C12.8127 2.64385 12.7503 2.67367 12.696 2.71527C12.6417 2.75687 12.5967 2.80933 12.5638 2.86931L11.8749 4.1275C11.8419 4.18769 11.8219 4.25412 11.8162 4.3225C11.8104 4.39089 11.819 4.45972 11.8414 4.52458C11.9713 4.90955 12.1893 5.25884 12.4781 5.54461L12.4934 6.21725C12.2176 6.51582 12.0154 6.87473 11.9029 7.26533C11.8834 7.33076 11.8776 7.39955 11.8861 7.46733C11.8946 7.5351 11.9171 7.60036 11.9521 7.65897L12.6981 8.88418C12.7337 8.94269 12.781 8.99312 12.8372 9.03227C12.8934 9.07141 12.9571 9.0984 13.0243 9.11151C13.4228 9.19148 13.8344 9.17733 14.2264 9.07018L14.8169 9.39346C14.9384 9.78088 15.1485 10.1347 15.4305 10.4268C15.4764 10.475 15.5317 10.5134 15.5929 10.5396C15.6542 10.5658 15.7201 10.5793 15.7867 10.5793H15.798L17.2324 10.5459C17.3006 10.5443 17.3678 10.5285 17.4297 10.4995C17.4915 10.4705 17.5467 10.429 17.5916 10.3776C17.8607 10.0724 18.0545 9.70837 18.1574 9.31473L18.7312 8.96537C19.1281 9.05499 19.5405 9.05011 19.9352 8.9511C20.0015 8.93485 20.0637 8.90497 20.1179 8.86338C20.172 8.82178 20.2169 8.76938 20.2496 8.7095L20.9385 7.45083C20.9718 7.39068 20.9921 7.32422 20.9981 7.25574C21.0041 7.18726 20.9957 7.11828 20.9735 7.05325ZM19.5007 8.03047C19.3453 8.05527 19.1868 8.05527 19.0313 8.03047C18.9528 7.9625 18.8547 7.92113 18.7512 7.91229C18.6477 7.90345 18.5441 7.92759 18.4551 7.98126L17.4144 8.61454C17.3256 8.66851 17.2561 8.74925 17.2159 8.84516C17.1758 8.94108 17.1671 9.04724 17.191 9.14842C17.1418 9.29804 17.0695 9.43901 16.9765 9.56617L16.0111 9.58831C15.9127 9.46563 15.834 9.32833 15.7779 9.18138C15.7973 9.07939 15.7839 8.97387 15.7397 8.87992C15.6956 8.78597 15.6228 8.70841 15.5318 8.65833L14.4626 8.07377C14.3715 8.02397 14.267 8.00424 14.1641 8.01741C14.0611 8.03057 13.965 8.07596 13.8894 8.14709C13.7352 8.17889 13.577 8.18669 13.4204 8.17021L12.9185 7.34553C12.9754 7.19845 13.0551 7.06128 13.1547 6.93909C13.2526 6.90466 13.3372 6.84014 13.3962 6.75477C13.4552 6.6694 13.4858 6.56754 13.4834 6.46377L13.4554 5.24643C13.4531 5.14249 13.418 5.04194 13.3551 4.9592C13.2921 4.87646 13.2046 4.81578 13.105 4.78587C12.9998 4.66891 12.9138 4.53605 12.8501 4.39222L13.3137 3.54589C13.469 3.52162 13.6272 3.52162 13.7826 3.54589C13.8612 3.61397 13.9593 3.65541 14.0629 3.66425C14.1665 3.67309 14.2703 3.64888 14.3593 3.59509L15.4 2.96182C15.4888 2.90785 15.5583 2.82711 15.5984 2.7312C15.6386 2.63528 15.6473 2.52912 15.6234 2.42794C15.6722 2.27831 15.7446 2.13744 15.8379 2.01068L16.8033 1.98854C16.9018 2.111 16.9805 2.24814 17.0365 2.39497C17.0172 2.49689 17.0306 2.6023 17.0748 2.69615C17.119 2.79 17.1917 2.86748 17.2826 2.91754L18.3518 3.50259C18.4429 3.55233 18.5474 3.57198 18.6504 3.55872C18.7534 3.54546 18.8495 3.49998 18.925 3.42878C19.0792 3.39662 19.2375 3.38915 19.394 3.40664L19.8959 4.23083C19.839 4.37777 19.7594 4.5149 19.6602 4.63727C19.5622 4.67159 19.4777 4.736 19.4185 4.82128C19.3594 4.90656 19.3288 5.00835 19.331 5.1121L19.359 6.33042C19.3613 6.43442 19.3965 6.53502 19.4595 6.61776C19.5226 6.70051 19.6102 6.76116 19.7099 6.79099C19.8146 6.90812 19.9002 7.04095 19.9638 7.18463L19.5007 8.03047ZM17.2555 4.23526C16.9483 4.06884 16.5987 3.99699 16.2508 4.02874C15.9029 4.06048 15.5721 4.19441 15.3001 4.41367C15.0281 4.63293 14.827 4.92773 14.7221 5.261C14.6172 5.59426 14.6132 5.9511 14.7106 6.28663C14.8097 6.62183 15.0058 6.9202 15.2742 7.14419C15.5425 7.36818 15.8711 7.50776 16.2186 7.54538C16.5662 7.58299 16.917 7.51695 17.2271 7.35556C17.5372 7.19418 17.7926 6.94467 17.9611 6.63845C18.1863 6.22642 18.2387 5.74184 18.1067 5.29121C17.9748 4.84058 17.6693 4.46077 17.2575 4.23526H17.2555ZM17.0956 6.16411C17.021 6.29989 16.9079 6.41053 16.7705 6.48208C16.6331 6.55362 16.4776 6.58285 16.3236 6.56608C16.1696 6.54931 16.0241 6.48728 15.9053 6.38784C15.7865 6.2884 15.6999 6.156 15.6563 6.00736C15.6127 5.85871 15.6142 5.70049 15.6605 5.55266C15.7067 5.40484 15.7958 5.27403 15.9163 5.17677C16.0369 5.07951 16.1836 5.02016 16.3378 5.00619C16.4921 4.99223 16.6471 5.02429 16.7831 5.09832C16.8738 5.14756 16.9539 5.21422 17.0189 5.29447C17.0838 5.37472 17.1322 5.46699 17.1614 5.56599C17.1906 5.66499 17.2 5.76878 17.1891 5.87141C17.1781 5.97405 17.147 6.07351 17.0976 6.16411H17.0956Z" fill="white"/>
<path d="M7.60632 1.25439H3.46027C2.80805 1.2553 2.1828 1.5148 1.7216 1.976C1.26041 2.43719 1.00091 3.06244 1 3.71466V7.8612C1.00078 8.51347 1.26024 9.13879 1.72146 9.60001C2.18268 10.0612 2.80801 10.3207 3.46027 10.3215H7.60632C8.25858 10.3207 8.88391 10.0612 9.34513 9.60001C9.80635 9.13879 10.0658 8.51347 10.0666 7.8612V3.71466C10.0658 3.0624 9.80635 2.43707 9.34513 1.97585C8.88391 1.51463 8.25858 1.25517 7.60632 1.25439ZM9.08248 7.86022C9.08248 8.25172 8.92696 8.62719 8.65012 8.90402C8.37329 9.18086 7.99782 9.33638 7.60632 9.33638H3.46027C3.06877 9.33638 2.6933 9.18086 2.41647 8.90402C2.13963 8.62719 1.98411 8.25172 1.98411 7.86022V3.71466C1.98411 3.32316 2.13963 2.94769 2.41647 2.67086C2.6933 2.39403 3.06877 2.2385 3.46027 2.2385H7.60632C7.99782 2.2385 8.37329 2.39403 8.65012 2.67086C8.92696 2.94769 9.08248 3.32316 9.08248 3.71466V7.86022ZM7.60632 12.1298H3.46027C2.80801 12.1306 2.18268 12.39 1.72146 12.8512C1.26024 13.3125 1.00078 13.9378 1 14.59V18.7356C1.00078 19.3879 1.26024 20.0132 1.72146 20.4744C2.18268 20.9356 2.80801 21.1951 3.46027 21.1959H7.60632C8.25858 21.1951 8.88391 20.9356 9.34513 20.4744C9.80635 20.0132 10.0658 19.3879 10.0666 18.7356V14.59C10.0658 13.9378 9.80635 13.3125 9.34513 12.8512C8.88391 12.39 8.25858 12.1306 7.60632 12.1298ZM9.08248 18.7356C9.08248 19.1271 8.92696 19.5026 8.65012 19.7794C8.37329 20.0562 7.99782 20.2118 7.60632 20.2118H3.46027C3.06877 20.2118 2.6933 20.0562 2.41647 19.7794C2.13963 19.5026 1.98411 19.1271 1.98411 18.7356V14.59C1.98411 14.1985 2.13963 13.8231 2.41647 13.5462C2.6933 13.2694 3.06877 13.1139 3.46027 13.1139H7.60632C7.99782 13.1139 8.37329 13.2694 8.65012 13.5462C8.92696 13.8231 9.08248 14.1985 9.08248 14.59V18.7356ZM18.4807 12.1298H14.3356C13.6834 12.1306 13.0581 12.39 12.5968 12.8512C12.1356 13.3125 11.8762 13.9378 11.8754 14.59V18.7356C11.8762 19.3879 12.1356 20.0132 12.5968 20.4744C13.0581 20.9356 13.6834 21.1951 14.3356 21.1959H18.4812C19.1335 21.1951 19.7588 20.9356 20.22 20.4744C20.6812 20.0132 20.9407 19.3879 20.9415 18.7356V14.59C20.9407 13.9378 20.6812 13.3125 20.22 12.8512C19.7588 12.39 19.133 12.1306 18.4807 12.1298ZM19.9569 18.7356C19.9569 19.1271 19.8014 19.5026 19.5245 19.7794C19.2477 20.0562 18.8722 20.2118 18.4807 20.2118H14.3356C13.9441 20.2118 13.5687 20.0562 13.2918 19.7794C13.015 19.5026 12.8595 19.1271 12.8595 18.7356V14.59C12.8595 14.1985 13.015 13.8231 13.2918 13.5462C13.5687 13.2694 13.9441 13.1139 14.3356 13.1139H18.4812C18.8727 13.1139 19.2482 13.2694 19.525 13.5462C19.8018 13.8231 19.9574 14.1985 19.9574 14.59L19.9569 18.7356ZM20.9735 7.05325C20.8436 6.66829 20.6255 6.31899 20.3367 6.03322L20.3215 5.36058C20.5973 5.06201 20.7995 4.70311 20.912 4.31251C20.9315 4.24707 20.9373 4.17828 20.9288 4.11051C20.9203 4.04274 20.8978 3.97747 20.8627 3.91887L20.1148 2.69464C20.0791 2.63602 20.0316 2.58552 19.9753 2.54637C19.9189 2.50722 19.855 2.48029 19.7876 2.46731C19.3895 2.38895 18.9788 2.40309 18.587 2.50864L17.9965 2.18585C17.8754 1.79827 17.6653 1.4444 17.3829 1.15254C17.3348 1.1041 17.2775 1.06568 17.2144 1.0395C17.1513 1.01332 17.0837 0.999892 17.0154 1L15.5815 1.03297C15.5132 1.03462 15.446 1.05048 15.3842 1.07953C15.3223 1.10859 15.2672 1.15021 15.2223 1.20174C14.9535 1.50698 14.7595 1.87074 14.656 2.26409L14.0817 2.61345C13.6852 2.52459 13.2735 2.52948 12.8792 2.62772C12.8127 2.64385 12.7503 2.67367 12.696 2.71527C12.6417 2.75687 12.5967 2.80933 12.5638 2.86931L11.8749 4.1275C11.8419 4.18769 11.8219 4.25412 11.8162 4.3225C11.8104 4.39089 11.819 4.45972 11.8414 4.52458C11.9713 4.90955 12.1893 5.25884 12.4781 5.54461L12.4934 6.21725C12.2176 6.51582 12.0154 6.87473 11.9029 7.26533C11.8834 7.33076 11.8776 7.39955 11.8861 7.46733C11.8946 7.5351 11.9171 7.60036 11.9521 7.65897L12.6981 8.88418C12.7337 8.94269 12.781 8.99312 12.8372 9.03227C12.8934 9.07141 12.9571 9.0984 13.0243 9.11151C13.4228 9.19148 13.8344 9.17733 14.2264 9.07018L14.8169 9.39346C14.9384 9.78088 15.1485 10.1347 15.4305 10.4268C15.4764 10.475 15.5317 10.5134 15.5929 10.5396C15.6542 10.5658 15.7201 10.5793 15.7867 10.5793H15.798L17.2324 10.5459C17.3006 10.5443 17.3678 10.5285 17.4297 10.4995C17.4915 10.4705 17.5467 10.429 17.5916 10.3776C17.8607 10.0724 18.0545 9.70837 18.1574 9.31473L18.7312 8.96537C19.1281 9.05499 19.5405 9.05011 19.9352 8.9511C20.0015 8.93485 20.0637 8.90497 20.1179 8.86338C20.172 8.82178 20.2169 8.76938 20.2496 8.7095L20.9385 7.45083C20.9718 7.39068 20.9921 7.32422 20.9981 7.25574C21.0041 7.18726 20.9957 7.11828 20.9735 7.05325ZM19.5007 8.03047C19.3453 8.05527 19.1868 8.05527 19.0313 8.03047C18.9528 7.9625 18.8547 7.92113 18.7512 7.91229C18.6477 7.90345 18.5441 7.92759 18.4551 7.98126L17.4144 8.61454C17.3256 8.66851 17.2561 8.74925 17.2159 8.84516C17.1758 8.94108 17.1671 9.04724 17.191 9.14842C17.1418 9.29804 17.0695 9.43901 16.9765 9.56617L16.0111 9.58831C15.9127 9.46563 15.834 9.32833 15.7779 9.18138C15.7973 9.07939 15.7839 8.97387 15.7397 8.87992C15.6956 8.78597 15.6228 8.70841 15.5318 8.65833L14.4626 8.07377C14.3715 8.02397 14.267 8.00424 14.1641 8.01741C14.0611 8.03057 13.965 8.07596 13.8894 8.14709C13.7352 8.17889 13.577 8.18669 13.4204 8.17021L12.9185 7.34553C12.9754 7.19845 13.0551 7.06128 13.1547 6.93909C13.2526 6.90466 13.3372 6.84014 13.3962 6.75477C13.4552 6.6694 13.4858 6.56754 13.4834 6.46377L13.4554 5.24643C13.4531 5.14249 13.418 5.04194 13.3551 4.9592C13.2921 4.87646 13.2046 4.81578 13.105 4.78587C12.9998 4.66891 12.9138 4.53605 12.8501 4.39222L13.3137 3.54589C13.469 3.52162 13.6272 3.52162 13.7826 3.54589C13.8612 3.61397 13.9593 3.65541 14.0629 3.66425C14.1665 3.67309 14.2703 3.64888 14.3593 3.59509L15.4 2.96182C15.4888 2.90785 15.5583 2.82711 15.5984 2.7312C15.6386 2.63528 15.6473 2.52912 15.6234 2.42794C15.6722 2.27831 15.7446 2.13744 15.8379 2.01068L16.8033 1.98854C16.9018 2.111 16.9805 2.24814 17.0365 2.39497C17.0172 2.49689 17.0306 2.6023 17.0748 2.69615C17.119 2.79 17.1917 2.86748 17.2826 2.91754L18.3518 3.50259C18.4429 3.55233 18.5474 3.57198 18.6504 3.55872C18.7534 3.54546 18.8495 3.49998 18.925 3.42878C19.0792 3.39662 19.2375 3.38915 19.394 3.40664L19.8959 4.23083C19.839 4.37777 19.7594 4.5149 19.6602 4.63727C19.5622 4.67159 19.4777 4.736 19.4185 4.82128C19.3594 4.90656 19.3288 5.00835 19.331 5.1121L19.359 6.33042C19.3613 6.43442 19.3965 6.53502 19.4595 6.61776C19.5226 6.70051 19.6102 6.76116 19.7099 6.79099C19.8146 6.90812 19.9002 7.04095 19.9638 7.18463L19.5007 8.03047ZM17.2555 4.23526C16.9483 4.06884 16.5987 3.99699 16.2508 4.02874C15.9029 4.06048 15.5721 4.19441 15.3001 4.41367C15.0281 4.63293 14.827 4.92773 14.7221 5.261C14.6172 5.59426 14.6132 5.9511 14.7106 6.28663C14.8097 6.62183 15.0058 6.9202 15.2742 7.14419C15.5425 7.36818 15.8711 7.50776 16.2186 7.54538C16.5662 7.58299 16.917 7.51695 17.2271 7.35556C17.5372 7.19418 17.7926 6.94467 17.9611 6.63845C18.1863 6.22642 18.2387 5.74184 18.1067 5.29121C17.9748 4.84058 17.6693 4.46077 17.2575 4.23526H17.2555ZM17.0956 6.16411C17.021 6.29989 16.9079 6.41053 16.7705 6.48208C16.6331 6.55362 16.4776 6.58285 16.3236 6.56608C16.1696 6.54931 16.0241 6.48728 15.9053 6.38784C15.7865 6.2884 15.6999 6.156 15.6563 6.00736C15.6127 5.85871 15.6142 5.70049 15.6605 5.55266C15.7067 5.40484 15.7958 5.27403 15.9163 5.17677C16.0369 5.07951 16.1836 5.02016 16.3378 5.00619C16.4921 4.99223 16.6471 5.02429 16.7831 5.09832C16.8738 5.14756 16.9539 5.21422 17.0189 5.29447C17.0838 5.37472 17.1322 5.46699 17.1614 5.56599C17.1906 5.66499 17.2 5.76878 17.1891 5.87141C17.1781 5.97405 17.147 6.07351 17.0976 6.16411H17.0956Z" stroke="white" stroke-width="0.8" mask="url(#path-1-outside-1_36280_10159)"/>
</svg>
