<svg width="20" height="17" viewBox="0 0 20 17" fill="none" xmlns="http://www.w3.org/2000/svg">
<path d="M14.3334 1.00001C14.3334 0.447512 13.8859 0 13.3334 0H6.6667C6.11421 0 5.6667 0.447512 5.6667 1.00001V3.33346H3.66669V16.6669H16.3334V3.33346H14.3334V1.00001ZM7.66671 2.00001H12.3334V3.33335H7.66671V2.00001ZM1.00001 3.33335H3.00002V16.6668H1.00001C0.447512 16.6668 0 16.2192 0 15.6667V4.33336C0 3.78086 0.447512 3.33335 1.00001 3.33335ZM20 4.33336V15.6667C20 16.2192 19.5525 16.6668 19 16.6668H17V3.33335H19C19.5525 3.33335 20 3.78086 20 4.33336Z" fill="#3D3D3D"/>
</svg>
    