<svg width="20" height="18" viewBox="0 0 20 18" fill="none" xmlns="http://www.w3.org/2000/svg">
<path d="M6.54707 13.4077L6.54706 13.4078C6.70851 13.471 6.85374 13.5989 6.9209 13.7853C6.98111 13.9451 6.98298 14.137 6.88919 14.3095L6.84338 14.4048C6.79947 14.4968 6.74756 14.5962 6.69548 14.6874L6.69155 14.6943L6.69144 14.6943C6.4703 15.0545 6.21317 15.3841 5.9224 15.6848C7.07907 15.4531 8.08026 14.9457 8.82261 14.2074L8.82551 14.2045L8.82553 14.2045C8.95497 14.0799 9.1448 14.0058 9.33155 14.02M6.54707 13.4077L9.3131 14.2693M6.54707 13.4077L6.54396 13.4066C3.81356 12.3786 2.12114 10.2373 2.14419 8.00864C2.16094 6.38896 3.03576 4.91334 4.46913 3.84037C5.90269 2.76725 7.88417 2.1075 10.0716 2.13001C12.2632 2.15257 14.2328 2.85303 15.6461 3.95558C17.0592 5.05799 17.9057 6.55171 17.8932 8.17206M6.54707 13.4077L18.1432 8.17397M9.33155 14.02C9.33184 14.02 9.33213 14.0201 9.33242 14.0201L9.3131 14.2693M9.33155 14.02C9.33137 14.02 9.33118 14.02 9.331 14.02L9.3131 14.2693M9.33155 14.02C9.58534 14.0382 9.77179 14.048 9.96509 14.05C12.1525 14.0725 14.1342 13.4128 15.5679 12.3397C17.0013 11.2668 17.8762 9.79146 17.8932 8.17206M9.3131 14.2693C9.56945 14.2877 9.76175 14.2979 9.9625 14.3C14.4376 14.3461 18.1077 11.6021 18.1432 8.17397M17.8932 8.17206L18.1432 8.17397M17.8932 8.17206C17.8932 8.17184 17.8932 8.17161 17.8932 8.1714L18.1432 8.17397M3.68013 17.069L3.68386 17.0693C3.91336 17.0878 4.13524 17.0986 4.35844 17.1009C6.38389 17.1217 8.20334 16.4951 9.51544 15.3219C9.65201 15.3293 9.79564 15.3362 9.93494 15.3376C14.9296 15.389 19.1363 12.2286 19.1781 8.18406C19.22 4.13129 15.0793 0.89321 10.0849 0.841804C5.09037 0.790398 0.883616 3.94257 0.841702 7.99533C0.814708 10.6054 2.59337 13.0095 5.36937 14.314C4.89558 14.9566 4.25447 15.4746 3.45669 15.8503C3.18416 15.9696 3.04378 16.2666 3.09218 16.5442L3.09196 16.5443L3.09422 16.5546C3.15578 16.8365 3.38952 17.0412 3.68013 17.069ZM5.14755 16.0472C5.30021 16.0339 5.45103 16.0163 5.5998 15.9944L5.14755 16.0472Z" fill="#D9D9D9" stroke="#D9D9D9" stroke-width="0.5"/>
</svg>
