<svg width="20" height="16" viewBox="0 0 20 16" fill="none" xmlns="http://www.w3.org/2000/svg">
<path fill-rule="evenodd" clip-rule="evenodd" d="M6.01185 6.32424H9.71951C9.96648 6.32424 10.1669 6.52469 10.1669 6.77167C10.1669 7.01865 9.96648 7.2191 9.71951 7.2191H6.0208L4.98684 10.5699C4.82845 11.0831 4.99176 11.642 5.40158 11.9892C5.81141 12.3368 6.38901 12.4062 6.86998 12.1659L15.258 7.97078C15.7125 7.74349 15.9998 7.2786 15.9998 6.77032C15.9998 6.26203 15.7125 5.79716 15.258 5.56986C13.0769 4.47902 9.17815 2.52911 6.8655 1.37249C6.38543 1.13222 5.80828 1.20158 5.398 1.54834C4.98818 1.8951 4.82443 2.45305 4.98192 2.9667L6.01185 6.32424Z" fill="#3D3D3D"/>
<path d="M16.617 9.84619C16.2436 9.84619 15.897 10.0515 15.717 10.3787L15.1354 11.4424L14.0719 12.024C13.3608 12.4138 13.3608 13.4343 14.0719 13.8226L15.1354 14.4042L15.717 15.4678C16.1082 16.1774 17.1272 16.1774 17.5154 15.4678L18.0956 14.4042L19.1591 13.8226C19.8702 13.4328 19.8702 12.4123 19.1591 12.024L18.0956 11.4424L17.5154 10.3787C17.3355 10.05 16.9904 9.84619 16.6155 9.84619H16.617Z" fill="#3D3D3D"/>
<path d="M13.6133 0.319955L13.2656 0.95834L12.6262 1.30697C12.2014 1.5409 12.2014 2.15214 12.6262 2.38608L13.2656 2.73471L13.6133 3.3731C13.8461 3.79871 14.4599 3.79871 14.6942 3.3731L15.0419 2.73471L15.6813 2.38608C16.1061 2.15215 16.1061 1.54091 15.6813 1.30697L15.0419 0.95834L14.6942 0.319955C14.5839 0.122245 14.3783 0 14.1545 0C13.9308 0 13.7206 0.122249 13.6133 0.319955Z" fill="#3D3D3D"/>
<path d="M1.74096 5.3497L1.27737 6.20088L0.424802 6.66572C-0.141601 6.97763 -0.141601 7.79261 0.424802 8.10453L1.27737 8.56937L1.74096 9.42056C2.05136 9.98804 2.86969 9.98804 3.18212 9.42056L3.64571 8.56937L4.49828 8.10453C5.06468 7.79263 5.06468 6.97765 4.49828 6.66572L3.64571 6.20088L3.18212 5.3497C3.03498 5.08609 2.76086 4.9231 2.46257 4.9231C2.16426 4.9231 1.88404 5.08609 1.74096 5.3497Z" fill="#3D3D3D"/>
</svg>
