<svg width="16" height="16" viewBox="0 0 16 16" fill="none" xmlns="http://www.w3.org/2000/svg">
<path d="M7.74966 5.04985L2.39667 4.99462C1.78842 4.98901 1.20279 5.22491 0.76826 5.65057C0.333734 6.07622 0.0858048 6.65687 0.0788696 7.2651L0.0236415 12.618C0.0180259 13.2263 0.253922 13.8119 0.679574 14.2465C1.10522 14.681 1.68587 14.9289 2.2941 14.9359L7.64709 14.9911C8.25534 14.9967 8.84097 14.7608 9.2755 14.3351C9.71002 13.9095 9.95795 13.3288 9.96489 12.7206L10.0201 7.36767C10.0257 6.75942 9.78984 6.17379 9.36419 5.73925C8.93853 5.30472 8.35789 5.05679 7.74966 5.04985ZM8.43547 12.7048C8.43319 12.9076 8.35055 13.1012 8.2057 13.243C8.06086 13.3849 7.86563 13.4636 7.66287 13.4617L2.30988 13.4064C2.10713 13.4042 1.91357 13.3215 1.77168 13.1767C1.62979 13.0318 1.55117 12.8366 1.55306 12.6338L1.60829 7.28088C1.61058 7.07813 1.69322 6.88457 1.83806 6.74268C1.98291 6.60079 2.17813 6.52217 2.38089 6.52406L7.73388 6.57929C7.93663 6.58157 8.13019 6.66421 8.27208 6.80906C8.41397 6.95391 8.4926 7.14913 8.4907 7.35189L8.43547 12.7048Z" fill="#3D3D3D"/>
<path d="M12.7204 0.0788978L7.36737 0.0236692C6.75912 0.0180549 6.17349 0.253953 5.73897 0.679604C5.30444 1.10526 5.05651 1.6859 5.04957 2.29413L5.04168 3.05884C5.04065 3.15926 5.0594 3.25891 5.09687 3.35208C5.13435 3.44526 5.1898 3.53014 5.26008 3.60188C5.33036 3.67362 5.41408 3.73082 5.50646 3.77021C5.59884 3.80959 5.69808 3.8304 5.7985 3.83144C5.89892 3.83247 5.99857 3.81372 6.09174 3.77625C6.18492 3.73877 6.2698 3.68331 6.34154 3.61304C6.41328 3.54276 6.47048 3.45904 6.50987 3.36666C6.54926 3.27428 6.57006 3.17504 6.5711 3.07462L6.57899 2.30991C6.58128 2.10716 6.66392 1.9136 6.80877 1.77171C6.95361 1.62982 7.14884 1.5512 7.35159 1.55309L12.7046 1.60832C12.9073 1.61061 13.1009 1.69325 13.2428 1.8381C13.3847 1.98294 13.4633 2.17816 13.4614 2.38091L13.4062 7.73391C13.4039 7.93666 13.3212 8.13021 13.1764 8.2721C13.0315 8.41399 12.8363 8.49262 12.6336 8.49073L11.8689 8.48284C11.666 8.48075 11.4707 8.55931 11.3258 8.70124C11.1809 8.84317 11.0984 9.03684 11.0963 9.23966C11.0942 9.44247 11.1727 9.63781 11.3147 9.7827C11.4566 9.92759 11.6503 10.0102 11.8531 10.0123L12.6178 10.0201C13.226 10.0258 13.8117 9.78986 14.2462 9.36421C14.6807 8.93856 14.9287 8.35792 14.9356 7.74969L14.9908 2.39669C14.9964 1.78845 14.7605 1.20282 14.3349 0.768291C13.9092 0.333765 13.3286 0.0858342 12.7204 0.0788978Z" fill="#3D3D3D"/>
</svg>
