<svg width="33" height="22" viewBox="0 0 33 22" fill="none" xmlns="http://www.w3.org/2000/svg">
<g clip-path="url(#clip0_421_345)">
<path d="M29.7503 0.728516H3.39327C1.93761 0.728516 0.757568 1.90856 0.757568 3.36422V19.1785C0.757568 20.6341 1.93761 21.8142 3.39327 21.8142H29.7503C31.206 21.8142 32.386 20.6341 32.386 19.1785V3.36422C32.386 1.90856 31.206 0.728516 29.7503 0.728516Z" fill="#252525"/>
<path d="M12.6183 17.8602C16.2575 17.8602 19.2076 14.9101 19.2076 11.2709C19.2076 7.63175 16.2575 4.68164 12.6183 4.68164C8.97917 4.68164 6.02905 7.63175 6.02905 11.2709C6.02905 14.9101 8.97917 17.8602 12.6183 17.8602Z" fill="#EB001B"/>
<path d="M20.5253 17.8602C24.1644 17.8602 27.1146 14.9101 27.1146 11.2709C27.1146 7.63175 24.1644 4.68164 20.5253 4.68164C16.8861 4.68164 13.936 7.63175 13.936 11.2709C13.936 14.9101 16.8861 17.8602 20.5253 17.8602Z" fill="#F79E1B"/>
<path fill-rule="evenodd" clip-rule="evenodd" d="M16.5717 6C18.1722 7.20215 19.2074 9.11613 19.2074 11.2719C19.2074 13.4277 18.1722 15.3416 16.5717 16.5438C14.9713 15.3416 13.936 13.4277 13.936 11.2719C13.936 9.11613 14.9713 7.20215 16.5717 6V6Z" fill="#FF5F00"/>
</g>
<defs>
<clipPath id="clip0_421_345">
<rect width="31.6285" height="21.0856" fill="white" transform="translate(0.757568 0.728516)"/>
</clipPath>
</defs>
</svg>
