<svg width="20" height="20" viewBox="0 0 20 20" fill="none" xmlns="http://www.w3.org/2000/svg">
<path d="M19.8629 8.19379L18.2274 10.4507C18.1131 10.6078 17.9417 10.7078 17.756 10.7364C17.5917 10.7578 17.4346 10.715 17.2918 10.6364V19.2856C17.2918 19.6784 16.9704 19.9998 16.5776 19.9998H13.028C12.6351 19.9998 12.3138 19.6784 12.3138 19.2856V14.6145C12.3138 13.4361 11.3496 12.4719 10.1711 12.4719H9.82116C8.64271 12.4719 7.67851 13.4361 7.67851 14.6145V19.2856C7.67851 19.6784 7.35712 19.9998 6.96429 19.9998H3.4147C3.02187 19.9998 2.70048 19.6784 2.70048 19.2856V10.6364C2.59335 10.7007 2.47193 10.7435 2.34337 10.7435C2.30766 10.7435 2.27195 10.7435 2.23624 10.7364C2.0434 10.7078 1.87198 10.6007 1.76486 10.4507L0.136447 8.19379C-0.0921017 7.87953 -0.0278223 7.44387 0.286433 7.20817L9.57124 0.144629C9.82836 -0.0482096 10.1783 -0.0482096 10.4354 0.144629L19.7202 7.20108C20.0274 7.43676 20.0916 7.87245 19.8631 8.1867L19.8629 8.19379Z" fill="white"/>
</svg>
