<svg width="20" height="16" viewBox="0 0 20 16" fill="none" xmlns="http://www.w3.org/2000/svg">
<path fill-rule="evenodd" clip-rule="evenodd" d="M6.01185 6.3243H9.71951C9.96648 6.3243 10.1669 6.52475 10.1669 6.77173C10.1669 7.01871 9.96648 7.21916 9.71951 7.21916H6.0208L4.98684 10.57C4.82845 11.0832 4.99176 11.642 5.40158 11.9892C5.81141 12.3369 6.38901 12.4062 6.86998 12.166L15.258 7.97084C15.7125 7.74355 15.9998 7.27866 15.9998 6.77038C15.9998 6.26209 15.7125 5.79722 15.258 5.56992C13.0769 4.47908 9.17815 2.52917 6.8655 1.37255C6.38543 1.13228 5.80828 1.20164 5.398 1.5484C4.98818 1.89516 4.82443 2.45311 4.98192 2.96676L6.01185 6.3243Z" fill="#8A15D2"/>
<path d="M16.617 9.84616C16.2436 9.84616 15.897 10.0514 15.717 10.3787L15.1354 11.4424L14.0719 12.024C13.3608 12.4137 13.3608 13.4342 14.0719 13.8225L15.1354 14.4042L15.717 15.4678C16.1082 16.1774 17.1272 16.1774 17.5154 15.4678L18.0956 14.4042L19.1591 13.8225C19.8702 13.4328 19.8702 12.4123 19.1591 12.024L18.0956 11.4424L17.5154 10.3787C17.3355 10.0499 16.9904 9.84616 16.6155 9.84616H16.617Z" fill="#8A15D2"/>
<path d="M13.6133 0.319955L13.2656 0.95834L12.6262 1.30697C12.2014 1.5409 12.2014 2.15214 12.6262 2.38608L13.2656 2.73471L13.6133 3.3731C13.8461 3.79871 14.4599 3.79871 14.6942 3.3731L15.0419 2.73471L15.6813 2.38608C16.1061 2.15215 16.1061 1.54091 15.6813 1.30697L15.0419 0.95834L14.6942 0.319955C14.5839 0.122245 14.3783 0 14.1545 0C13.9308 0 13.7206 0.122249 13.6133 0.319955Z" fill="#8A15D2"/>
<path d="M1.74096 5.34969L1.27737 6.20087L0.424802 6.66571C-0.141601 6.97761 -0.141601 7.7926 0.424802 8.10452L1.27737 8.56936L1.74096 9.42054C2.05136 9.98803 2.86969 9.98803 3.18212 9.42054L3.64571 8.56936L4.49828 8.10452C5.06468 7.79261 5.06468 6.97763 4.49828 6.66571L3.64571 6.20087L3.18212 5.34969C3.03498 5.08607 2.76086 4.92308 2.46257 4.92308C2.16426 4.92308 1.88404 5.08608 1.74096 5.34969Z" fill="#8A15D2"/>
</svg>
