<svg width="131" height="45" viewBox="0 0 131 45" fill="none" xmlns="http://www.w3.org/2000/svg">
<path d="M44.1634 7.9244C44.1634 8.87113 43.9401 9.76427 43.4936 10.6038C43.047 11.4434 42.3325 12.1311 41.35 12.667C40.3676 13.185 39.1082 13.444 37.572 13.444H34.196V21H31.1414V2.37799H37.572C39.0011 2.37799 40.2068 2.62807 41.1893 3.12823C42.1896 3.61053 42.9309 4.27145 43.4132 5.111C43.9133 5.95056 44.1634 6.88836 44.1634 7.9244ZM37.572 10.9522C38.7331 10.9522 39.5995 10.6931 40.1711 10.1751C40.7427 9.63923 41.0285 8.889 41.0285 7.9244C41.0285 5.88804 39.8763 4.86986 37.572 4.86986H34.196V10.9522H37.572ZM50.3992 8.3799C50.8457 7.62967 51.4352 7.04912 52.1676 6.63828C52.9178 6.20957 53.802 5.99522 54.8202 5.99522V9.15694H54.0432C52.8464 9.15694 51.9354 9.46061 51.3102 10.0679C50.7028 10.6753 50.3992 11.7292 50.3992 13.2297V21H47.3446V6.23636H50.3992V8.3799ZM59.45 4.28038C58.8962 4.28038 58.4318 4.09282 58.0567 3.7177C57.6815 3.34258 57.494 2.87815 57.494 2.3244C57.494 1.77065 57.6815 1.30622 58.0567 0.931102C58.4318 0.555982 58.8962 0.368422 59.45 0.368422C59.9858 0.368422 60.4413 0.555982 60.8165 0.931102C61.1916 1.30622 61.3791 1.77065 61.3791 2.3244C61.3791 2.87815 61.1916 3.34258 60.8165 3.7177C60.4413 4.09282 59.9858 4.28038 59.45 4.28038ZM60.9504 6.23636V21H57.8959V6.23636H60.9504ZM70.5876 21.2411C69.4265 21.2411 68.3815 21.0357 67.4526 20.6249C66.5416 20.1962 65.8182 19.6246 65.2823 18.91C64.7464 18.1777 64.4606 17.3649 64.4249 16.4718H67.5866C67.6402 17.097 67.9349 17.6239 68.4708 18.0526C69.0246 18.4635 69.7123 18.6689 70.534 18.6689C71.3914 18.6689 72.0523 18.5081 72.5168 18.1866C72.9991 17.8472 73.2402 17.4185 73.2402 16.9005C73.2402 16.3467 72.9723 15.9359 72.4364 15.6679C71.9184 15.4 71.0877 15.1053 69.9445 14.7837C68.837 14.4801 67.9349 14.1853 67.2383 13.8995C66.5416 13.6137 65.9343 13.1761 65.4163 12.5866C64.9161 11.9971 64.666 11.2201 64.666 10.2555C64.666 9.46954 64.8983 8.75502 65.3627 8.11196C65.8271 7.45104 66.4881 6.93302 67.3455 6.55789C68.2207 6.18278 69.2211 5.99522 70.3464 5.99522C72.0255 5.99522 73.3742 6.42392 74.3924 7.28134C75.4284 8.12089 75.9822 9.27305 76.0536 10.7378H72.9991C72.9455 10.0769 72.6775 9.54992 72.1952 9.15694C71.7129 8.76396 71.0609 8.56746 70.2393 8.56746C69.4354 8.56746 68.8192 8.7193 68.3904 9.02297C67.9617 9.32664 67.7474 9.72855 67.7474 10.2287C67.7474 10.6217 67.8903 10.9522 68.1761 11.2201C68.4619 11.488 68.8102 11.7024 69.2211 11.8632C69.6319 12.0061 70.2392 12.1936 71.0431 12.4258C72.1148 12.7116 72.9901 13.0064 73.6689 13.31C74.3656 13.5959 74.964 14.0246 75.4641 14.5962C75.9643 15.1678 76.2233 15.927 76.2412 16.8737C76.2412 17.7132 76.0089 18.4635 75.5445 19.1244C75.0801 19.7853 74.4192 20.3033 73.5617 20.6785C72.7222 21.0536 71.7308 21.2411 70.5876 21.2411ZM83.3733 8.72823V16.9005C83.3733 17.4542 83.4983 17.8561 83.7484 18.1062C84.0163 18.3384 84.4629 18.4545 85.0881 18.4545H86.9637V21H84.5522C83.1768 21 82.1229 20.6785 81.3905 20.0354C80.6581 19.3923 80.2919 18.3474 80.2919 16.9005V8.72823H78.5503V6.23636H80.2919V2.56555H83.3733V6.23636H86.9637V8.72823H83.3733ZM91.601 4.28038C91.0472 4.28038 90.5828 4.09282 90.2077 3.7177C89.8325 3.34258 89.645 2.87815 89.645 2.3244C89.645 1.77065 89.8325 1.30622 90.2077 0.931102C90.5828 0.555982 91.0472 0.368422 91.601 0.368422C92.1369 0.368422 92.5924 0.555982 92.9675 0.931102C93.3426 1.30622 93.5302 1.77065 93.5302 2.3244C93.5302 2.87815 93.3426 3.34258 92.9675 3.7177C92.5924 4.09282 92.1369 4.28038 91.601 4.28038ZM93.1014 6.23636V21H90.0469V6.23636H93.1014ZM104.829 5.99522C105.99 5.99522 107.026 6.23636 107.937 6.71866C108.866 7.20096 109.589 7.91547 110.107 8.8622C110.625 9.80893 110.884 10.9522 110.884 12.2919V21H107.856V12.7474C107.856 11.4255 107.526 10.4163 106.865 9.71962C106.204 9.0051 105.302 8.64785 104.159 8.64785C103.015 8.64785 102.104 9.0051 101.426 9.71962C100.765 10.4163 100.434 11.4255 100.434 12.7474V21H97.3797V6.23636H100.434V7.9244C100.934 7.31707 101.569 6.8437 102.337 6.50431C103.123 6.16491 103.953 5.99522 104.829 5.99522ZM128.579 13.2565C128.579 13.8102 128.544 14.3104 128.472 14.7569H117.192C117.281 15.9359 117.719 16.8826 118.505 17.5971C119.291 18.3116 120.255 18.6689 121.398 18.6689C123.042 18.6689 124.203 17.9812 124.882 16.6057H128.177C127.731 17.9633 126.918 19.0797 125.739 19.955C124.578 20.8124 123.131 21.2411 121.398 21.2411C119.987 21.2411 118.719 20.9285 117.594 20.3033C116.486 19.6603 115.611 18.7671 114.968 17.6239C114.343 16.4628 114.03 15.1231 114.03 13.6048C114.03 12.0864 114.334 10.7557 114.941 9.61244C115.566 8.45136 116.433 7.55821 117.54 6.93301C118.665 6.30782 119.952 5.99522 121.398 5.99522C122.792 5.99522 124.033 6.29888 125.123 6.90622C126.213 7.51356 127.061 8.37097 127.668 9.47847C128.276 10.5681 128.579 11.8274 128.579 13.2565ZM125.391 12.2919C125.373 11.1665 124.971 10.2644 124.185 9.58565C123.399 8.90686 122.426 8.56746 121.265 8.56746C120.211 8.56746 119.309 8.90686 118.558 9.58565C117.808 10.2466 117.361 11.1486 117.219 12.2919H125.391Z" fill="#3D3D3D"/>
<path d="M37.2237 25.387C39.2065 25.387 40.9392 25.771 42.4218 26.5391C43.9223 27.2893 45.0744 28.379 45.8782 29.808C46.6999 31.2192 47.1108 32.8715 47.1108 34.7649C47.1108 36.6584 46.6999 38.3018 45.8782 39.6951C45.0744 41.0884 43.9223 42.1602 42.4218 42.9104C40.9392 43.6428 39.2065 44.009 37.2237 44.009H31.1414V25.387H37.2237ZM37.2237 41.5171C39.403 41.5171 41.0731 40.9276 42.2342 39.7487C43.3953 38.5697 43.9759 36.9085 43.9759 34.7649C43.9759 32.6035 43.3953 30.9155 42.2342 29.7008C41.0731 28.4862 39.403 27.8788 37.2237 27.8788H34.196V41.5171H37.2237ZM49.3879 36.5602C49.3879 35.0775 49.6915 33.7646 50.2989 32.6214C50.9241 31.4782 51.7636 30.594 52.8175 29.9688C53.8893 29.3257 55.0683 29.0042 56.3544 29.0042C57.5155 29.0042 58.5247 29.2364 59.3821 29.7008C60.2574 30.1474 60.9541 30.7101 61.4721 31.3889V29.2453H64.5534V44.009H61.4721V41.8118C60.9541 42.5085 60.2485 43.089 59.3553 43.5535C58.4622 44.0179 57.444 44.2501 56.3008 44.2501C55.0325 44.2501 53.8714 43.9286 52.8175 43.2855C51.7636 42.6246 50.9241 41.7136 50.2989 40.5525C49.6915 39.3736 49.3879 38.0428 49.3879 36.5602ZM61.4721 36.6137C61.4721 35.5956 61.2577 34.7114 60.829 33.9611C60.4182 33.2109 59.8734 32.6393 59.1946 32.2463C58.5158 31.8533 57.7834 31.6568 56.9974 31.6568C56.2115 31.6568 55.4791 31.8533 54.8003 32.2463C54.1215 32.6214 53.5678 33.1841 53.1391 33.9343C52.7282 34.6667 52.5228 35.542 52.5228 36.5602C52.5228 37.5783 52.7282 38.4715 53.1391 39.2396C53.5678 40.0077 54.1215 40.5972 54.8003 41.008C55.497 41.401 56.2293 41.5975 56.9974 41.5975C57.7834 41.5975 58.5158 41.401 59.1946 41.008C59.8734 40.615 60.4182 40.0434 60.829 39.2932C61.2577 38.5251 61.4721 37.6319 61.4721 36.6137ZM72.397 31.7372V39.9094C72.397 40.4632 72.5221 40.8651 72.7721 41.1152C73.0401 41.3474 73.4867 41.4635 74.1119 41.4635H75.9875V44.009H73.576C72.2005 44.009 71.1466 43.6874 70.4142 43.0444C69.6819 42.4013 69.3157 41.3563 69.3157 39.9094V31.7372H67.5741V29.2453H69.3157V25.5745H72.397V29.2453H75.9875V31.7372H72.397ZM78.0525 36.5602C78.0525 35.0775 78.3562 33.7646 78.9635 32.6214C79.5887 31.4782 80.4283 30.594 81.4822 29.9688C82.5539 29.3257 83.7329 29.0042 85.019 29.0042C86.1801 29.0042 87.1893 29.2364 88.0468 29.7008C88.922 30.1474 89.6187 30.7101 90.1367 31.3889V29.2453H93.218V44.009H90.1367V41.8118C89.6187 42.5085 88.9131 43.089 88.02 43.5535C87.1268 44.0179 86.1086 44.2501 84.9654 44.2501C83.6972 44.2501 82.5361 43.9286 81.4822 43.2855C80.4283 42.6246 79.5887 41.7136 78.9635 40.5525C78.3562 39.3736 78.0525 38.0428 78.0525 36.5602ZM90.1367 36.6137C90.1367 35.5956 89.9224 34.7114 89.4936 33.9611C89.0828 33.2109 88.538 32.6393 87.8592 32.2463C87.1804 31.8533 86.448 31.6568 85.6621 31.6568C84.8761 31.6568 84.1437 31.8533 83.4649 32.2463C82.7861 32.6214 82.2324 33.1841 81.8037 33.9343C81.3928 34.6667 81.1874 35.542 81.1874 36.5602C81.1874 37.5783 81.3928 38.4715 81.8037 39.2396C82.2324 40.0077 82.7861 40.5972 83.4649 41.008C84.1616 41.401 84.894 41.5975 85.6621 41.5975C86.448 41.5975 87.1804 41.401 87.8592 41.008C88.538 40.615 89.0828 40.0434 89.4936 39.2932C89.9224 38.5251 90.1367 37.6319 90.1367 36.6137ZM116.104 39.5611H107.584L105.949 44.009H103.967L110.799 25.5209H112.916L119.722 44.009H117.739L116.104 39.5611ZM115.542 38.007L111.844 27.8788L108.146 38.007H115.542ZM124.875 25.2798V44.009H123V25.2798H124.875Z" fill="#3D3D3D"/>
<path fill-rule="evenodd" clip-rule="evenodd" d="M22.8121 22.0988L23.2467 3.5673C19.5625 3.77982 17.0447 9.47279 15.1628 16.1259C13.9886 15.5854 12.6816 15.284 11.3043 15.284C6.20207 15.284 2.06592 19.4201 2.06592 24.5223C2.06592 29.5495 6.08132 33.6388 11.0798 33.758L11.0791 33.761C11.1269 33.761 11.1745 33.7607 11.222 33.7603C11.2494 33.7606 11.2768 33.7607 11.3043 33.7607C11.5764 33.7607 11.8458 33.7489 12.1119 33.7259C20.3139 33.1576 22.6729 25.8339 22.8121 22.0988ZM11.9146 27.4339C14.2166 27.4339 16.0827 25.5677 16.0827 23.2657C16.0827 20.9637 14.2166 19.0976 11.9146 19.0976C9.61255 19.0976 7.7464 20.9637 7.7464 23.2657C7.7464 25.5677 9.61255 27.4339 11.9146 27.4339Z" fill="#B84CB2"/>
<path fill-rule="evenodd" clip-rule="evenodd" d="M0.342285 42.7795L0.776842 24.248C0.900319 20.9342 2.77103 14.7958 8.91915 13.0563C9.83615 12.7514 10.817 12.5862 11.8364 12.5862C11.9107 12.5862 11.9847 12.5871 12.0586 12.5889C12.1338 12.5871 12.2093 12.5861 12.285 12.5861C12.3123 12.5861 12.3396 12.5863 12.3668 12.5865C12.4143 12.5861 12.462 12.5858 12.5099 12.5858L12.5091 12.5888C17.5078 12.7078 21.5233 16.7972 21.5233 21.8245C21.5233 26.9267 17.3872 31.0629 12.285 31.0629C12.2107 31.0629 12.1366 31.062 12.0628 31.0602C11.9876 31.0621 11.9121 31.063 11.8364 31.063C10.6132 31.063 9.44559 30.8252 8.37714 30.3935C6.50055 36.9722 3.99456 42.5688 0.342285 42.7795ZM12.1974 27.4339C14.4994 27.4339 16.3655 25.5677 16.3655 23.2657C16.3655 20.9637 14.4994 19.0976 12.1974 19.0976C9.89538 19.0976 8.02923 20.9637 8.02923 23.2657C8.02923 25.5677 9.89538 27.4339 12.1974 27.4339Z" fill="url(#paint0_linear_36279_2379)" fill-opacity="0.8"/>
<path fill-rule="evenodd" clip-rule="evenodd" d="M22.8889 2.18315L22.4554 20.3277C22.311 24.1339 19.7681 31.7463 10.7524 31.7463C11.0763 30.5275 11.4107 29.0515 11.7675 27.4168C11.8924 27.4281 12.019 27.4339 12.1468 27.4339C14.4488 27.4339 16.315 25.5677 16.315 23.2657C16.315 21.4595 15.1661 19.9216 13.5593 19.343C15.5484 10.9992 18.3191 2.44192 22.8889 2.18315Z" fill="url(#paint1_linear_36279_2379)" fill-opacity="0.85"/>
<path fill-rule="evenodd" clip-rule="evenodd" d="M12.0757 30.8125C16.759 30.8125 20.5556 27.0159 20.5556 22.3325C20.5556 17.6492 16.759 13.8526 12.0757 13.8526C7.39231 13.8526 3.5957 17.6492 3.5957 22.3325C3.5957 27.0159 7.39231 30.8125 12.0757 30.8125ZM12.4587 27.4339C14.7607 27.4339 16.6268 25.5677 16.6268 23.2657C16.6268 20.9637 14.7607 19.0976 12.4587 19.0976C10.1566 19.0976 8.2905 20.9637 8.2905 23.2657C8.2905 25.5677 10.1566 27.4339 12.4587 27.4339Z" fill="#C04EA8" fill-opacity="0.5"/>
<path fill-rule="evenodd" clip-rule="evenodd" d="M1.4502 43.5712L1.85585 25.4266C1.99107 21.6204 4.37094 14.008 12.8087 14.008C12.4576 15.4197 12.0933 17.1765 11.6985 19.1251C9.62353 19.3641 8.01233 21.1267 8.01233 23.2657C8.01233 24.8015 8.84298 26.1434 10.0795 26.8664C8.22531 35.0634 5.64935 43.3171 1.4502 43.5712Z" fill="url(#paint2_linear_36279_2379)" fill-opacity="0.8"/>
<path fill-rule="evenodd" clip-rule="evenodd" d="M12.0783 26.6622C14.3803 26.6622 16.2464 24.7961 16.2464 22.4941C16.2464 22.1033 16.1926 21.7251 16.0921 21.3664C16.3843 21.9361 16.5492 22.5819 16.5492 23.2661C16.5492 25.5681 14.683 27.4343 12.381 27.4343C10.4698 27.4343 8.85899 26.1479 8.36719 24.3938C9.05802 25.7406 10.4605 26.6622 12.0783 26.6622Z" fill="url(#paint3_linear_36279_2379)"/>
<path fill-rule="evenodd" clip-rule="evenodd" d="M23.0014 20.6097L23.4359 2.07819C19.7837 2.28887 17.2777 7.88542 15.4011 14.464C14.3984 14.0588 13.3083 13.8245 12.1669 13.7972L12.1676 13.7944C12.123 13.7944 12.0785 13.7946 12.0342 13.7949C12.0034 13.7946 11.9726 13.7945 11.9417 13.7945C11.8663 13.7945 11.791 13.7954 11.716 13.7972C11.642 13.7954 11.5677 13.7945 11.4932 13.7945C10.5223 13.7945 9.58634 13.9443 8.70723 14.222C2.42151 15.8906 0.434557 22.0391 0.434557 25.4565L0 43.988C3.6522 43.7773 6.15817 38.1809 8.03475 31.6024C9.03754 32.0075 10.1277 32.2417 11.2691 32.2689L11.2683 32.2719C11.3161 32.2719 11.3637 32.2716 11.4111 32.2712C11.4385 32.2714 11.4659 32.2716 11.4933 32.2716C11.5708 32.2716 11.6482 32.2706 11.7253 32.2687C11.7972 32.2704 11.8694 32.2712 11.9417 32.2712C12.9589 32.2712 13.9378 32.1068 14.8531 31.8031C21.006 30.0659 22.8779 23.9245 23.0014 20.6097ZM12.0392 27.4339C14.3412 27.4339 16.2074 25.5677 16.2074 23.2657C16.2074 20.9637 14.3412 19.0976 12.0392 19.0976C9.73722 19.0976 7.87107 20.9637 7.87107 23.2657C7.87107 25.5677 9.73722 27.4339 12.0392 27.4339Z" fill="url(#paint4_linear_36279_2379)"/>
<defs>
<linearGradient id="paint0_linear_36279_2379" x1="10.9328" y1="8.01064" x2="10.9328" y2="36.6204" gradientUnits="userSpaceOnUse">
<stop offset="0.05" stop-color="white"/>
<stop offset="0.25" stop-color="#C04EA8"/>
</linearGradient>
<linearGradient id="paint1_linear_36279_2379" x1="18.8297" y1="-1.84485" x2="19.021" y2="10.7855" gradientUnits="userSpaceOnUse">
<stop stop-color="white"/>
<stop offset="1" stop-color="#EA8450"/>
</linearGradient>
<linearGradient id="paint2_linear_36279_2379" x1="7.09418" y1="30.6879" x2="6.75573" y2="48.4771" gradientUnits="userSpaceOnUse">
<stop offset="0.0822018" stop-color="#C452A1"/>
<stop offset="0.281222" stop-color="#934EDA"/>
</linearGradient>
<linearGradient id="paint3_linear_36279_2379" x1="14.9561" y1="22.5735" x2="12.3824" y2="27.4347" gradientUnits="userSpaceOnUse">
<stop offset="0.435" stop-color="#9A4ED2"/>
<stop offset="1" stop-color="#EF8A46" stop-opacity="0.5"/>
</linearGradient>
<linearGradient id="paint4_linear_36279_2379" x1="21.7984" y1="6.31509" x2="-1.47525" y2="44.0401" gradientUnits="userSpaceOnUse">
<stop stop-color="#EF8A46"/>
<stop offset="0.587073" stop-color="#C250A6"/>
<stop offset="1" stop-color="#8F4EDF"/>
</linearGradient>
</defs>
</svg>
