<svg width="33" height="22" viewBox="0 0 33 22" fill="none" xmlns="http://www.w3.org/2000/svg">
<g clip-path="url(#clip0_421_351)">
<path d="M29.6502 0.728516H3.29318C1.83752 0.728516 0.657471 1.90856 0.657471 3.36422V19.1785C0.657471 20.6341 1.83752 21.8142 3.29318 21.8142H29.6502C31.1059 21.8142 32.2859 20.6341 32.2859 19.1785V3.36422C32.2859 1.90856 31.1059 0.728516 29.6502 0.728516Z" fill="#016FD0"/>
<path fill-rule="evenodd" clip-rule="evenodd" d="M18.7966 18.3798V10.8662L32.1696 10.8782V12.9537L30.6239 14.6055L32.1696 16.2724V18.3919H29.7018L28.3902 16.9447L27.0881 18.3974L18.7966 18.3798Z" fill="#FFFFFE"/>
<path fill-rule="evenodd" clip-rule="evenodd" d="M19.6897 17.5563V11.6934H24.661V13.044H21.2993V13.9608H24.5809V15.289H21.2993V16.1895H24.661V17.5563H19.6897Z" fill="#016FD0"/>
<path fill-rule="evenodd" clip-rule="evenodd" d="M24.6361 17.5562L27.3869 14.6214L24.636 11.6934H26.7652L28.4461 13.5516L30.1318 11.6934H32.1694V11.7395L29.4772 14.6214L32.1694 17.473V17.5562H30.1113L28.4005 15.6794L26.7074 17.5562H24.6361Z" fill="#016FD0"/>
<path fill-rule="evenodd" clip-rule="evenodd" d="M19.4202 4.19727H22.6437L23.7759 6.7682V4.19727H27.7556L28.4419 6.1234L29.1305 4.19727H32.1694V11.7109H16.1094L19.4202 4.19727Z" fill="#FFFFFE"/>
<path fill-rule="evenodd" clip-rule="evenodd" d="M20.0307 5.01367L17.4292 10.8718H19.2134L19.7042 9.69865H22.3636L22.854 10.8718H24.6827L22.092 5.01367H20.0307ZM20.2542 8.384L21.0344 6.51914L21.814 8.384H20.2542Z" fill="#016FD0"/>
<path fill-rule="evenodd" clip-rule="evenodd" d="M24.6584 10.8707V5.0127L27.1665 5.02132L28.457 8.62265L29.7559 5.0127H32.1697V10.8707L30.6165 10.8844V6.86054L29.1503 10.8707H27.7325L26.2359 6.8468V10.8707H24.6584Z" fill="#016FD0"/>
</g>
<defs>
<clipPath id="clip0_421_351">
<rect width="31.6285" height="21.0856" fill="white" transform="translate(0.657471 0.728516)"/>
</clipPath>
</defs>
</svg>
