<svg width="33" height="22" viewBox="0 0 33 22" fill="none" xmlns="http://www.w3.org/2000/svg">
<g clip-path="url(#clip0_421_361)">
<path d="M29.5459 21.4862L29.5487 21.4862C30.8074 21.497 31.84 20.4679 31.8558 19.1855L31.8558 3.37412C31.8507 2.75392 31.6039 2.16152 31.1701 1.72746C30.7375 1.2945 30.1543 1.0545 29.5459 1.05966L3.19331 1.05965C2.5877 1.0545 2.00453 1.2945 1.57188 1.72746C1.13813 2.16152 0.891289 2.75392 0.886241 3.37143L0.88623 19.1717C0.891289 19.7919 1.13813 20.3843 1.57188 20.8184C2.00453 21.2514 2.5877 21.4914 3.19612 21.4862H29.5459ZM29.5445 22.1451C29.5441 22.1451 29.5436 22.1451 29.5431 22.1451L29.5459 22.1451H29.5445Z" fill="white" stroke="black" stroke-opacity="0.2" stroke-width="0.658926"/>
<path d="M17.178 21.8163H29.5458C30.24 21.8221 30.9081 21.5519 31.4031 21.0651C31.8981 20.5783 32.1794 19.9148 32.1851 19.2206V16.1123C27.5149 18.7932 22.4499 20.7184 17.178 21.8163Z" fill="#F27712"/>
<path d="M31.0947 12.982H29.9713L28.7062 11.3133H28.5862V12.982H27.6701V8.83758H29.0224C30.0804 8.83758 30.6911 9.27383 30.6911 10.0591C30.6911 10.7026 30.3094 11.117 29.6223 11.2479L31.0947 12.982ZM29.7423 10.0918C29.7423 9.68828 29.4369 9.48105 28.8698 9.48105H28.5862V10.7353H28.8479C29.4369 10.7353 29.7423 10.5172 29.7423 10.0918ZM24.4636 8.83758H27.0593V9.53559H25.3797V10.4626H26.9939V11.1715H25.3797V12.2949H27.0593V12.9929H24.4636V8.83758ZM21.5189 13.0911L19.5339 8.82667H20.5373L21.7915 11.6187L23.0567 8.82667H24.0382L22.0315 13.0911H21.5407H21.5189ZM13.2191 13.0802C11.8231 13.0802 10.7325 12.1313 10.7325 10.8989C10.7325 9.69918 11.8449 8.72852 13.2409 8.72852C13.6336 8.72852 13.9608 8.80486 14.3643 8.97936V9.93912C14.0587 9.63889 13.6475 9.4705 13.2191 9.47015C12.3466 9.47015 11.6813 10.1027 11.6813 10.8989C11.6813 11.7387 12.3357 12.3385 13.2627 12.3385C13.6772 12.3385 13.9935 12.2076 14.3643 11.8805V12.8402C13.9498 13.0147 13.6008 13.0802 13.2191 13.0802ZM10.4489 11.7169C10.4489 12.5239 9.78361 13.0802 8.82385 13.0802C8.12584 13.0802 7.62415 12.8402 7.1988 12.2949L7.79865 11.7823C8.00587 12.1531 8.35488 12.3385 8.79113 12.3385C9.20557 12.3385 9.50005 12.0877 9.50005 11.7605C9.50005 11.5751 9.4128 11.4333 9.22739 11.3242C9.02409 11.2256 8.8124 11.1453 8.59482 11.0843C7.73321 10.8116 7.43874 10.5172 7.43874 9.93912C7.43874 9.26293 8.07131 8.75033 8.9002 8.75033C9.4237 8.75033 9.89268 8.91392 10.2853 9.2193L9.80542 9.76462C9.61523 9.55611 9.34602 9.43734 9.06379 9.43743C8.67116 9.43743 8.3876 9.63374 8.3876 9.8955C8.3876 10.1136 8.55119 10.2336 9.09651 10.419C10.1435 10.7462 10.4489 11.0516 10.4489 11.7278V11.7169ZM5.94457 8.83758H6.86071V12.9929H5.94457V8.83758ZM2.99985 12.9929H1.64746V8.83758H2.99985C4.48312 8.83758 5.50832 9.68828 5.50832 10.9098C5.50832 11.5315 5.20294 12.1204 4.66852 12.513C4.21046 12.8402 3.69786 12.9929 2.98894 12.9929H2.99985ZM4.06867 9.87368C3.7633 9.63374 3.41429 9.54649 2.81444 9.54649H2.5636V12.2949H2.81444C3.40339 12.2949 3.7742 12.1858 4.06867 11.9677C4.38496 11.706 4.57037 11.3133 4.57037 10.9098C4.57037 10.5063 4.38496 10.1245 4.06867 9.87368Z" fill="black"/>
<path d="M16.9161 8.72852C15.7164 8.72852 14.7349 9.68828 14.7349 10.8771C14.7349 12.1422 15.6728 13.0911 16.9161 13.0911C18.1377 13.0911 19.0974 12.1313 19.0974 10.9098C19.0974 9.68828 18.1486 8.72852 16.9161 8.72852Z" fill="#F27712"/>
</g>
<defs>
<clipPath id="clip0_421_361">
<rect width="31.6285" height="21.0856" fill="white" transform="translate(0.557373 0.728516)"/>
</clipPath>
</defs>
</svg>
