<svg width="20" height="14" viewBox="0 0 20 14" fill="none" xmlns="http://www.w3.org/2000/svg">
<path d="M1.5 0C1.26753 0 1.04758 0.0548275 0.851562 0.148438L9.29688 8.6875C9.68946 9.08495 10.2942 9.08498 10.6875 8.6875L19.1484 0.148438C18.9524 0.0548275 18.7325 0 18.5 0H1.5ZM19.8516 0.851562L13.5078 7.26562L19.8516 13.1562C19.9471 12.9586 20 12.735 20 12.5V1.5C20 1.26753 19.9452 1.04758 19.8516 0.851562ZM0.140625 0.85936C0.049785 1.05302 0 1.27121 0 1.5V12.5C0 12.735 0.052925 12.9586 0.148438 13.1562L6.48438 7.27345L0.140625 0.85936ZM12.7969 7.97655L11.3984 9.39062C10.6261 10.1711 9.35791 10.1721 8.58594 9.39062L7.19531 7.98438L0.867188 13.8593C1.05921 13.9483 1.27371 14 1.5 14H18.5C18.7263 14 18.9408 13.9483 19.1328 13.8594L12.7969 7.97655Z" fill="#3D3D3D"/>
</svg>
