<svg width="20" height="15" viewBox="0 0 20 15" fill="none" xmlns="http://www.w3.org/2000/svg">
<path fill-rule="evenodd" clip-rule="evenodd" d="M17.4413 0C18.8541 0 20 1.14589 20 2.55866V9.76715H0V2.55866C0 1.14592 1.14589 0 2.55866 0H17.4413ZM0 11.1625H20V11.8601C20 13.2729 18.8541 14.4188 17.4413 14.4188H2.55866C1.14592 14.4188 0 13.2729 0 11.8601V11.1625ZM4.41877 3.72112C3.51968 3.72112 2.79061 4.45016 2.79061 5.34927V6.2789C2.79061 7.178 3.51966 7.90706 4.41877 7.90706H6.27888C7.17797 7.90706 7.90704 7.17802 7.90704 6.2789V5.34927C7.90704 4.45018 7.178 3.72112 6.27888 3.72112H4.41877ZM4.18592 5.34927C4.18592 5.22021 4.29057 5.11642 4.41877 5.11642H6.27888C6.40795 5.11642 6.51173 5.2202 6.51173 5.34927V6.2789C6.51173 6.40797 6.40796 6.51175 6.27888 6.51175H4.41877C4.29058 6.51175 4.18592 6.40798 4.18592 6.2789V5.34927Z" fill="#3D3D3D"/>
</svg>
