<svg width="22" height="22" viewBox="0 0 22 22" fill="none" xmlns="http://www.w3.org/2000/svg">
<path d="M11 5.94731C9.14861 5.94731 7.64287 7.45306 7.64287 9.30446C7.64287 11.1559 9.14861 12.6616 11 12.6616C12.8514 12.6616 14.3572 11.1559 14.3572 9.30446C14.3572 7.45306 12.8514 5.94731 11 5.94731ZM11 11.1098C10.0041 11.1098 9.19556 10.3013 9.19556 9.30537C9.19556 8.30946 10.0041 7.50091 11 7.50091C11.9959 7.50091 12.8045 8.30946 12.8045 9.30537C12.8045 10.3013 11.9959 11.1098 11 11.1098Z" fill="white" stroke="white" stroke-width="0.6"/>
<path d="M11 0.7C5.32003 0.7 0.7 5.32003 0.7 11C0.7 16.68 5.32003 21.3 11 21.3C16.68 21.3 21.3 16.68 21.3 11C21.3 5.32003 16.68 0.7 11 0.7ZM6.64387 18.5734C6.93268 16.4131 8.7662 14.7375 11 14.7375C13.234 14.7375 15.0677 16.4134 15.3562 18.574C14.0757 19.3159 12.5886 19.7473 11 19.7473C9.4117 19.7473 7.9332 19.316 6.64387 18.5734ZM19.7473 11C19.7473 13.6177 18.5884 15.9684 16.7549 17.5728C16.0632 15.0483 13.745 13.1857 11 13.1857C8.25358 13.1857 5.94461 15.0498 5.2463 17.5739C3.41213 15.9695 2.25269 13.6183 2.25269 11C2.25269 6.17551 6.17551 2.25269 11 2.25269C15.8245 2.25269 19.7473 6.17551 19.7473 11Z" fill="white" stroke="white" stroke-width="0.6"/>
</svg>
