<svg width="16" height="18" viewBox="0 0 16 18" fill="none" xmlns="http://www.w3.org/2000/svg">
<path d="M6.72497 14.6911C7.18365 14.8147 7.65615 14.8832 8.13926 14.8881C11.4122 14.9219 14.1102 12.1684 14.1456 8.74244C14.1573 7.60909 13.8741 6.49945 13.3256 5.5322L13.3255 5.53203C13.1537 5.22741 13.2484 4.83256 13.5441 4.64978L13.5446 4.64944L13.5446 4.64945C13.8426 4.46823 14.2247 4.56953 14.3989 4.87703C15.0621 6.04641 15.4041 7.38819 15.3907 8.75455L15.3907 8.7546C15.3481 12.8853 12.0933 16.2196 8.12662 16.1787L6.72497 14.6911ZM6.72497 14.6911L7.04977 14.5322L6.72497 14.6911ZM7.34892 13.6753C7.20549 13.3531 6.83323 13.2102 6.51939 13.3641L7.04985 14.5321C7.36149 14.3799 7.49273 13.9954 7.34892 13.6753Z" fill="#3D3D3D" stroke="#3D3D3D" stroke-width="0.178152"/>
<path d="M9.88605 2.15288L9.78598 1.96626C9.78596 1.96622 9.78594 1.96619 9.78593 1.96615L9.78583 1.96597L9.86433 1.92388L9.88605 2.15288ZM9.88605 2.15288C9.34504 2.01043 8.78737 1.92942 8.21726 1.92354C4.25033 1.88261 0.995345 5.21656 0.952731 9.34689C0.938628 10.7139 1.2814 12.0555 1.94461 13.2247C2.0586 13.4261 2.26354 13.5402 2.47495 13.5424C2.58652 13.5435 2.69783 13.5134 2.79912 13.4514L2.79945 13.4512C3.09521 13.2685 3.1899 12.8737 3.01805 12.5691L3.01795 12.5689C2.46942 11.6017 2.18624 10.4922 2.19793 9.35899L2.19793 9.35897C2.23263 5.93271 4.93085 3.17952 8.20329 3.21328C8.6864 3.21826 9.15937 3.28666 9.61772 3.41026L9.29286 3.56921L9.29278 3.56925L9.33193 3.64926M9.88605 2.15288L9.82326 4.73714L9.78413 4.65712M9.33193 3.64926C9.0653 3.77939 8.9499 4.11144 9.07501 4.38962C9.16493 4.58952 9.35367 4.70764 9.55295 4.70969C9.63093 4.7105 9.70909 4.69391 9.78413 4.65712M9.33193 3.64926L9.74633 3.4465L9.33193 3.64926ZM9.78413 4.65712L9.82334 4.7371M9.78413 4.65712L9.82334 4.7371M9.82334 4.7371L11.4981 3.9182L11.4984 3.91806C11.6549 3.84081 11.7729 3.70037 11.8254 3.53071C11.8779 3.36115 11.8607 3.17629 11.7767 3.02002C11.7767 3.02001 11.7767 3.01999 11.7767 3.01998L10.873 1.33702C10.873 1.337 10.873 1.33699 10.873 1.33698L10.8729 1.33687L10.7944 1.37901L9.82334 4.7371Z" fill="#3D3D3D" stroke="#3D3D3D" stroke-width="0.178152"/>
</svg>
