<svg width="12" height="12" viewBox="0 0 12 12" fill="none" xmlns="http://www.w3.org/2000/svg">
<path fill-rule="evenodd" clip-rule="evenodd" d="M8.60395 4.83019C8.60395 6.91459 6.91472 8.60382 4.83032 8.60382C2.74592 8.60382 1.05669 6.91459 1.05669 4.83019C1.05669 2.74579 2.74592 1.05657 4.83032 1.05657C6.91472 1.05657 8.60395 2.74579 8.60395 4.83019ZM7.92764 8.53665C7.08918 9.2383 6.00898 9.66048 4.83024 9.66048C2.16274 9.66048 0 7.49774 0 4.83024C0 2.16274 2.16274 0 4.83024 0C7.49775 0 9.66049 2.16274 9.66049 4.83024C9.66049 5.93814 9.28725 6.95932 8.65989 7.77427L11.8533 11.1062C12.0549 11.3167 12.0479 11.6516 11.8374 11.8533C11.6269 12.0549 11.292 12.0479 11.0903 11.8374L7.92764 8.53665Z" fill="#8D8D8D"/>
</svg>
