<svg width="22" height="22" viewBox="0 0 22 22" fill="none" xmlns="http://www.w3.org/2000/svg">
<path d="M20.8444 18.9084L16.0927 14.1567C18.4931 10.8604 18.1951 6.20261 15.1992 3.23415C13.534 1.56913 11.3873 0.75 9.2137 0.75C7.03994 0.75 4.89305 1.56927 3.22773 3.23459C-0.0759116 6.53823 -0.0759116 11.9029 3.22773 15.2065C4.89305 16.8718 7.03994 17.6911 9.2137 17.6911C10.9494 17.6911 12.6877 17.1696 14.1512 16.0992L18.929 20.8239C18.9292 20.8241 18.9293 20.8242 18.9295 20.8244C19.1964 21.091 19.5341 21.2259 19.9004 21.2259C20.2363 21.2259 20.6027 21.0931 20.8718 20.8239C21.3845 20.3112 21.3765 19.4405 20.8444 18.9084ZM9.2411 14.9716C7.69292 14.9716 6.27556 14.3692 5.16952 13.29C2.93981 11.0591 2.93852 7.40896 5.1711 5.14954C6.24765 4.07325 7.69096 3.46955 9.2411 3.46955C10.7898 3.46955 12.2076 4.0723 13.3138 5.15216C14.4139 6.22609 14.9921 7.66752 14.9921 9.22055C14.9921 10.7692 14.3894 12.187 13.3095 13.2932C12.236 14.3929 10.7674 14.9716 9.2411 14.9716Z" fill="white" stroke="white" stroke-width="0.5"/>
</svg>
