<svg width="20" height="17" viewBox="0 0 20 17" fill="none" xmlns="http://www.w3.org/2000/svg">
<path d="M6.96822 16.3636L6.96978 16.3638L6.97133 16.3636H16.5591C18.4598 16.3629 19.9996 14.8233 20 12.9224V3.44111C19.9996 1.54 18.4596 0.000222222 16.5589 0H3.44111C1.54022 0.000444444 0.000444444 1.54022 0 3.44111V12.9224C0.000444444 14.8231 1.54 16.3633 3.44111 16.3636H6.96822ZM18.182 3.44111V12.9224C18.1804 13.8184 17.4549 14.5438 16.5589 14.5456H7.87889V1.818H16.5589C17.4551 1.81978 18.1802 2.54489 18.182 3.44111ZM1.818 12.9224V3.44111C1.81956 2.54467 2.54489 1.81978 3.44111 1.818H6.06067V14.5456H3.44111C2.54511 14.544 1.81978 13.8187 1.818 12.9224Z" fill="#3D3D3D"/>
<path d="M3.69732 4.84801H4.19421C4.69621 4.84801 5.10332 4.4409 5.10332 3.9389C5.10332 3.43667 4.69621 3.02979 4.19421 3.02979H3.69732C3.1951 3.02979 2.78821 3.43667 2.78821 3.9389C2.78821 4.4409 3.1951 4.84801 3.69732 4.84801Z" fill="#3D3D3D"/>
<path d="M3.69732 7.70787H4.19421C4.69621 7.70787 5.10332 7.30076 5.10332 6.79876C5.10332 6.29654 4.69621 5.88965 4.19421 5.88965H3.69732C3.1951 5.88965 2.78821 6.29654 2.78821 6.79876C2.78821 7.30054 3.1951 7.70787 3.69732 7.70787Z" fill="#3D3D3D"/>
<path d="M4.19421 10.5677C4.69621 10.5677 5.10332 10.1606 5.10332 9.65862C5.10332 9.1564 4.69621 8.74951 4.19421 8.74951H3.69732C3.1951 8.74951 2.78821 9.1564 2.78821 9.65862C2.78821 10.1606 3.1951 10.5677 3.69732 10.5677H4.19421Z" fill="#3D3D3D"/>
</svg>
