<svg width="20" height="20" viewBox="0 0 20 20" fill="none" xmlns="http://www.w3.org/2000/svg">
<path d="M8.09524 0L7.64138 2.5C7.20014 2.63869 6.77288 2.81765 6.36905 3.02829L4.27083 1.58484L1.57738 4.27829L3.02829 6.36905C2.81674 6.77405 2.63912 7.19874 2.5 7.64138L0 8.09524V11.9048L2.5 12.3586C2.63948 12.8024 2.82348 13.2251 3.03571 13.631L1.57738 15.7217L4.27083 18.4152L6.36162 16.9717C6.76721 17.1837 7.19802 17.3607 7.64138 17.5L8.09524 20H11.9048L12.3586 17.5C12.8012 17.3609 13.226 17.1833 13.631 16.9717L15.7217 18.4152L18.4152 15.7217L16.9643 13.631C17.1749 13.2278 17.3536 12.8066 17.4926 12.3661L20 11.9048V8.09524L17.4926 7.64138C17.3543 7.20169 17.1814 6.77907 16.9717 6.3765L18.4152 4.27829L15.7217 1.58484L13.631 3.02829C13.226 2.81676 12.8013 2.63914 12.3586 2.5L11.9048 0H8.09524ZM10 5.71429C12.367 5.71429 14.2857 7.63306 14.2857 10C14.2857 12.367 12.367 14.2857 10 14.2857C7.63307 14.2857 5.71429 12.367 5.71429 10C5.71429 7.63306 7.63307 5.71429 10 5.71429Z" fill="white"/>
</svg>
