<svg width="21" height="17" viewBox="0 0 21 17" fill="none" xmlns="http://www.w3.org/2000/svg">
<path d="M15.6944 9C15.1556 9 14.6554 9.26687 14.3957 9.69231L13.5564 11.0751L12.0215 11.8312C10.9954 12.3378 10.9954 13.6645 12.0215 14.1693L13.5564 14.9254L14.3957 16.3081C14.9602 17.2306 16.4307 17.2306 16.991 16.3081L17.8281 14.9254L19.363 14.1693C20.3891 13.6626 20.3891 12.336 19.363 11.8312L17.8281 11.0751L16.991 9.69231C16.7312 9.26492 16.2332 9 15.6922 9H15.6944Z" fill="#8A15D2"/>
<path d="M4.59145 8C4.1876 8 3.81292 8.19883 3.61723 8.51956L2.98855 9.55686L1.83734 10.1233C1.06919 10.5022 1.06919 11.4983 1.83734 11.8771L2.98855 12.4436L3.61723 13.4809C4.03982 14.173 5.14313 14.173 5.56568 13.4809L6.19436 12.4436L7.34557 11.8771C8.11372 11.4982 8.11372 10.5022 7.34557 10.1233L6.19436 9.55686L5.56568 8.51956C5.37 8.19881 4.99946 8 4.59145 8Z" fill="#8A15D2"/>
<path d="M2.11391 1.43327L1.59126 2.29775L0.630053 2.76986C-0.00852023 3.08664 -0.00852023 3.91435 0.630053 4.23115L1.59126 4.70325L2.11391 5.56773C2.46386 6.14409 3.38646 6.14409 3.73871 5.56773L4.26136 4.70325L5.22257 4.23115C5.86114 3.91437 5.86114 3.08665 5.22257 2.76986L4.26136 2.29775L3.73871 1.43327C3.57282 1.16554 3.26377 1 2.92747 1C2.59115 1 2.27523 1.16555 2.11391 1.43327Z" fill="#8A15D2"/>
<path d="M15.4347 0.433272L14.9121 1.29775L13.9509 1.76986C13.3123 2.08664 13.3123 2.91435 13.9509 3.23115L14.9121 3.70325L15.4347 4.56773C15.7847 5.14409 16.7073 5.14409 17.0595 4.56773L17.5822 3.70325L18.5434 3.23115C19.1819 2.91437 19.1819 2.08665 18.5434 1.76986L17.5822 1.29775L17.0595 0.433272C16.8936 0.165541 16.5846 0 16.2483 0C15.912 0 15.596 0.165546 15.4347 0.433272Z" fill="#8A15D2"/>
</svg>
