<svg width="74" height="62" viewBox="0 0 74 62" fill="none" xmlns="http://www.w3.org/2000/svg">
<path d="M73.6501 21.4035C73.258 20.7724 72.5596 20.4018 71.8214 20.4018H62.1044V11.6439C62.1044 10.4462 61.1242 9.46598 59.9265 9.46598H30.8227L24.2213 1.62404C23.8078 1.12166 23.1982 0.839844 22.5427 0.839844H2.17794C0.980243 0.839844 0 1.82009 0 3.01779V58.9348C0 58.9562 0.0214423 58.9562 0.0214423 58.9776C0.0214423 59.238 0.0643282 59.48 0.153163 59.7189C0.174606 59.7618 0.217492 59.8047 0.238938 59.8721C0.260382 59.9579 0.303267 60.0467 0.349212 60.111C0.41354 60.2213 0.502373 60.3071 0.588148 60.3929C0.60959 60.4358 0.631033 60.4572 0.673915 60.4786C0.848524 60.6533 1.04457 60.785 1.26206 60.8922C1.32639 60.9136 1.37234 60.9351 1.41522 60.9565C1.65416 61.0423 1.91759 61.1097 2.17798 61.1097H55.3503C56.1988 61.1097 56.983 60.6073 57.3322 59.8231L73.8002 23.4436C74.1066 22.7972 74.0637 21.9916 73.6501 21.4035ZM53.9566 56.7565H5.55696L20.0646 24.7363H68.4454L53.9566 56.7565Z" fill="#D0A3EB"/>
</svg>
