<svg width="26" height="27" viewBox="0 0 26 27" fill="none" xmlns="http://www.w3.org/2000/svg">
<path d="M7.36779 0.77505H23.2003C24.6081 0.77505 25.7157 1.88256 25.7157 3.29039L25.7167 19.0985C25.7167 19.7594 25.4686 20.3966 24.9963 20.869L24.8372 20.7099L24.9962 20.869C24.6009 21.2643 24.1164 21.505 23.5858 21.5904C23.5197 22.1235 23.2789 22.5877 22.9123 22.9783C22.9121 22.9784 22.9121 22.9785 22.9119 22.9786L22.7479 22.8246C22.3956 23.2024 21.8922 23.4291 21.3888 23.5046L7.36779 0.77505ZM7.36779 0.77505C6.07737 0.77505 5.06297 1.70523 4.87503 2.9136C3.80813 3.08495 2.95965 3.88585 2.78601 4.95983C1.63111 5.19312 0.775 6.18135 0.775 7.41985V23.278C0.775 24.6858 1.88257 25.7934 3.2904 25.7934H19.1239C19.8141 25.7934 20.4512 25.5163 20.921 25.0207C21.2949 24.6459 21.5104 24.1835 21.5904 23.6967L7.36779 0.77505ZM24.5111 3.29045V7.99962H18.3912V1.97976H23.2004C23.9318 1.97976 24.5111 2.559 24.5111 3.29045ZM6.05692 3.29045C6.05692 2.55902 6.63624 1.97968 7.36769 1.97968H17.1864V20.4594H7.36769C6.63626 20.4594 6.05692 19.8801 6.05692 19.1487V3.29045ZM19.1229 24.6132H3.28935C2.55791 24.6132 1.97858 24.0338 1.97858 23.3024V7.44426C1.97858 6.90132 2.29804 6.44892 2.76211 6.24252V21.2641C2.76211 22.6719 3.86967 23.7795 5.27751 23.7795H20.3414C20.283 23.9369 20.1946 24.0854 20.0696 24.2263C19.804 24.4673 19.4815 24.6132 19.1229 24.6132ZM21.111 22.574H5.27751C4.54607 22.574 3.96674 21.9947 3.96674 21.2632V5.40508C3.96674 4.8255 4.3387 4.33281 4.85134 4.16981V19.1495C4.85134 20.5574 5.9589 21.6649 7.36674 21.6649H22.3749C22.3174 21.8524 22.2113 22.0331 22.0622 22.1832C21.7958 22.4266 21.4717 22.574 21.111 22.574ZM24.511 19.1228C24.511 19.4936 24.3823 19.8159 24.1458 20.075C23.8878 20.3314 23.569 20.4591 23.2003 20.4591H18.3912V9.2039H24.511V19.1228Z" fill="#8A15D2" stroke="#8A15D2" stroke-width="0.45"/>
</svg>
