<svg width="33" height="22" viewBox="0 0 33 22" fill="none" xmlns="http://www.w3.org/2000/svg">
<g clip-path="url(#clip0_421_337)">
<path d="M29.5208 1.05957H3.82272C2.36706 1.05957 1.18701 2.23962 1.18701 3.69528V18.8506C1.18701 20.3062 2.36706 21.4863 3.82272 21.4863H29.5208C30.9765 21.4863 32.1566 20.3062 32.1566 18.8506V3.69528C32.1566 2.23962 30.9765 1.05957 29.5208 1.05957Z" fill="white" stroke="black" stroke-opacity="0.2" stroke-width="0.658926"/>
<path d="M4.53126 8.52443C3.84184 8.1463 3.05501 7.84218 2.17529 7.63113L2.21219 7.46678H5.81913C6.30803 7.48392 6.70474 7.63102 6.83383 8.15052L7.61772 11.8878L7.85785 13.0134L10.0534 7.46678H12.424L8.90014 15.5922H6.52943L4.53126 8.52443ZM14.1677 15.6008H11.9259L13.3281 7.46678H15.5698L14.1677 15.6008ZM22.2947 7.66563L21.9898 9.42208L21.787 9.33571C21.3813 9.17124 20.8459 9.00689 20.117 9.02426C19.2319 9.02426 18.835 9.37884 18.8258 9.72502C18.8258 10.1058 19.306 10.3568 20.0901 10.729C21.3817 11.3087 21.9808 12.0182 21.9719 12.9442C21.9537 14.6316 20.4223 15.722 18.07 15.722C17.0642 15.7133 16.0955 15.5139 15.5697 15.2891L15.8834 13.4632L16.1786 13.5932C16.9074 13.8964 17.387 14.0259 18.2821 14.0259C18.9275 14.0259 19.6196 13.7747 19.6284 13.2298C19.6284 12.8749 19.3336 12.6151 18.4662 12.2171C17.6176 11.8275 16.483 11.1786 16.5014 10.0104C16.511 8.42689 18.07 7.31934 20.2839 7.31934C21.1511 7.31934 21.8525 7.50105 22.2947 7.66563ZM25.2743 12.7192H27.1377C27.0455 12.3125 26.621 10.3655 26.621 10.3655L26.4643 9.66464C26.3536 9.96747 26.16 10.4607 26.1693 10.4434C26.1693 10.4434 25.4589 12.2519 25.2743 12.7192ZM28.0416 7.46678L29.8502 15.6007H27.7745C27.7745 15.6007 27.5713 14.6661 27.507 14.3806H24.6286C24.5454 14.5968 24.1581 15.6007 24.1581 15.6007H21.8058L25.1358 8.14166C25.3665 7.61376 25.7728 7.46678 26.3075 7.46678H28.0416Z" fill="#171E6C"/>
</g>
<defs>
<clipPath id="clip0_421_337">
<rect width="31.6285" height="21.0856" fill="white" transform="translate(0.857666 0.728516)"/>
</clipPath>
</defs>
</svg>
