<svg width="23" height="17" viewBox="0 0 23 17" fill="none" xmlns="http://www.w3.org/2000/svg">
<path d="M18.3168 2.936C18.1731 3.05702 18.0945 3.21975 18.0928 3.38907C18.091 3.55814 18.166 3.72223 18.3068 3.84612C19.6973 5.09671 20.4915 6.75717 20.4734 8.51441C20.455 10.2993 19.5938 11.97 18.078 13.2188L18.078 13.2188L18.077 13.2197C17.9332 13.3407 17.8546 13.5034 17.8529 13.6727C17.8512 13.8394 17.924 14.0012 18.061 14.1245C18.1994 14.2789 18.4135 14.308 18.5825 14.3098C18.7427 14.3114 18.9397 14.2476 19.0663 14.1415C20.8689 12.6808 21.9071 10.6857 21.9294 8.52943C21.951 6.43162 21.0215 4.44408 19.3166 2.94636L19.3166 2.94632C19.0381 2.70193 18.6002 2.69741 18.3168 2.936ZM18.3168 2.936L18.4 3.03478L18.3168 2.936Z" fill="#3D3D3D" stroke="#3D3D3D" stroke-width="0.259019"/>
<path d="M16.9827 12.2374L16.9912 12.2296L16.9981 12.2204C17.7502 11.2254 18.1705 9.91001 18.1848 8.52982C18.1987 7.18116 17.805 5.88973 17.1012 4.8814C16.9109 4.59719 16.5108 4.5414 16.273 4.83087C16.1612 4.95196 16.1028 5.12328 16.0939 5.29009C16.0848 5.45819 16.125 5.64002 16.2331 5.78092C16.7564 6.51878 17.0627 7.50398 17.0523 8.51682C17.0415 9.56249 16.7144 10.542 16.1494 11.3009L16.1494 11.3008L16.1468 11.3045C16.0536 11.4392 16.0083 11.6081 16.0103 11.7699C16.0124 11.9296 16.0609 12.0956 16.1717 12.2194C16.2669 12.3396 16.4244 12.4246 16.5672 12.4261C16.7414 12.4279 16.8725 12.3393 16.9827 12.2374Z" fill="#3D3D3D" stroke="#3D3D3D" stroke-width="0.259019"/>
<path d="M5.83918 12.8732L5.83917 12.8732L5.84154 12.8747L10.7453 15.9406C11.1371 16.1967 11.5624 16.2944 11.9829 16.2988C12.3722 16.3028 12.7653 16.2135 13.0973 16.0282C13.8493 15.6301 14.3166 14.9129 14.3253 14.0645L14.4367 3.27104C14.4452 2.45196 13.9934 1.69555 13.2481 1.28169C12.5005 0.866529 11.6193 0.890822 10.8683 1.31801L10.8683 1.31798L10.8659 1.31937L5.89882 4.28408L5.89881 4.28406L5.89692 4.28524C5.73169 4.38775 5.53964 4.43927 5.3477 4.43729L3.3111 4.41628C2.04221 4.40318 0.980453 5.39108 0.967757 6.62164L0.928706 10.4066L0.928704 10.4068C0.916985 11.6671 1.98808 12.676 3.2571 12.6891L5.29369 12.7102C5.48608 12.7121 5.67672 12.7667 5.83918 12.8732ZM2.30743 6.66581L2.30743 6.66577C2.31274 6.15106 2.74796 5.7348 3.29868 5.74048L5.33527 5.76149C5.79053 5.76619 6.21647 5.64617 6.57889 5.42957C6.57891 5.42956 6.57894 5.42955 6.57896 5.42953L11.5458 2.46499C11.8511 2.28355 12.2329 2.26235 12.5568 2.4478C12.8896 2.63829 13.0713 2.92566 13.0675 3.28605L12.9562 14.0783C12.9525 14.4387 12.7649 14.7223 12.4283 14.9059C12.1003 15.0848 11.718 15.0564 11.4183 14.8681L11.418 14.868L6.51618 11.8033C6.15506 11.5492 5.73006 11.4209 5.27573 11.4162L3.23913 11.3952C2.68843 11.3895 2.2619 10.9644 2.26719 10.4497C2.26719 10.4496 2.26719 10.4496 2.26719 10.4496L2.30743 6.66581Z" fill="#3D3D3D" stroke="#3D3D3D" stroke-width="0.259019"/>
</svg>
